<svg xmlns="http://www.w3.org/2000/svg" xmlns:xlink="http://www.w3.org/1999/xlink" width="500" zoomAndPan="magnify" viewBox="0 0 375 374.999991" height="500" preserveAspectRatio="xMidYMid meet" version="1.2"><defs><clipPath id="f0b6133cea"><path d="M 168 84.507812 L 206 84.507812 L 206 126 L 168 126 Z M 168 84.507812 "/></clipPath><clipPath id="90caa8d7d9"><path d="M 169.644531 146.625 L 206.144531 146.625 L 206.144531 187.253906 L 169.644531 187.253906 Z M 169.644531 146.625 "/></clipPath><clipPath id="0a0990839b"><path d="M 136.003906 118 L 177 118 L 177 155 L 136.003906 155 Z M 136.003906 118 "/></clipPath><clipPath id="a6e966f161"><path d="M 198.121094 117.160156 L 238.75 117.160156 L 238.75 153.660156 L 198.121094 153.660156 Z M 198.121094 117.160156 "/></clipPath></defs><g id="04660369f2"><rect x="0" width="375" y="0" height="374.999991" style="fill:#ffffff;fill-opacity:1;stroke:none;"/><rect x="0" width="375" y="0" height="374.999991" style="fill:#ffffff;fill-opacity:1;stroke:none;"/><g clip-rule="nonzero" clip-path="url(#f0b6133cea)"><path style=" stroke:none;fill-rule:nonzero;fill:#3871c1;fill-opacity:1;" d="M 176.058594 102.707031 C 176.058594 96.746094 180.910156 91.894531 186.871094 91.894531 C 192.832031 91.894531 197.683594 96.746094 197.683594 102.707031 L 197.683594 125.136719 L 205.070312 125.136719 L 205.070312 102.707031 C 205.070312 92.671875 196.90625 84.507812 186.871094 84.507812 C 176.835938 84.507812 168.675781 92.671875 168.675781 102.707031 L 168.675781 113.308594 L 176.058594 113.308594 L 176.058594 102.707031 "/></g><g clip-rule="nonzero" clip-path="url(#90caa8d7d9)"><path style=" stroke:none;fill-rule:nonzero;fill:#34a496;fill-opacity:1;" d="M 198.695312 169.058594 C 198.695312 175.019531 193.84375 179.867188 187.882812 179.867188 C 181.921875 179.867188 177.070312 175.019531 177.070312 169.058594 L 177.070312 146.628906 L 169.683594 146.628906 L 169.683594 169.058594 C 169.683594 179.089844 177.847656 187.253906 187.882812 187.253906 C 197.917969 187.253906 206.082031 179.089844 206.082031 169.058594 L 206.082031 158.457031 L 198.695312 158.457031 L 198.695312 169.058594 "/></g><g clip-rule="nonzero" clip-path="url(#0a0990839b)"><path style=" stroke:none;fill-rule:nonzero;fill:#3871c1;fill-opacity:1;" d="M 143.390625 136.386719 C 143.390625 130.425781 148.242188 125.574219 154.203125 125.574219 L 176.632812 125.574219 L 176.632812 118.191406 L 154.203125 118.191406 C 144.167969 118.191406 136.003906 126.351562 136.003906 136.386719 C 136.003906 146.421875 144.167969 154.585938 154.203125 154.585938 L 164.800781 154.585938 L 164.800781 147.199219 L 154.203125 147.199219 C 148.242188 147.199219 143.390625 142.347656 143.390625 136.386719 "/></g><g clip-rule="nonzero" clip-path="url(#a6e966f161)"><path style=" stroke:none;fill-rule:nonzero;fill:#34a496;fill-opacity:1;" d="M 220.550781 117.179688 L 209.953125 117.179688 L 209.953125 124.566406 L 220.550781 124.566406 C 226.515625 124.566406 231.363281 129.414062 231.363281 135.378906 C 231.363281 141.339844 226.515625 146.191406 220.550781 146.191406 L 198.121094 146.191406 L 198.121094 153.574219 L 220.550781 153.574219 C 230.585938 153.574219 238.75 145.410156 238.75 135.378906 C 238.75 125.34375 230.585938 117.179688 220.550781 117.179688 "/></g><g style="fill:#34a496;fill-opacity:1;"><g transform="translate(69.211515, 256.520099)"><path style="stroke:none" d="M 5.859375 -14.96875 L 5.859375 -17.71875 L 13.53125 -19.296875 L 13.53125 -16.53125 Z M 0.203125 0 L 5.90625 -13.78125 L 13.5 -13.78125 L 19.21875 0 L 13.578125 0 L 12.640625 -2.484375 L 6.765625 -2.484375 L 5.828125 0 Z M 8.109375 -6.03125 L 11.296875 -6.03125 L 9.703125 -10.234375 Z M 8.109375 -6.03125 "/></g></g><g style="fill:#34a496;fill-opacity:1;"><g transform="translate(88.626509, 256.520099)"><path style="stroke:none" d="M 0.390625 0 L 0.390625 -13.78125 L 5.515625 -13.78125 L 5.515625 -4.328125 L 14.5625 -4.328125 L 14.5625 0 Z M 0.390625 0 "/></g></g><g style="fill:#34a496;fill-opacity:1;"><g transform="translate(103.394513, 256.520099)"><path style="stroke:none" d="M 5.90625 0 L 0.203125 -13.78125 L 5.828125 -13.78125 L 9.703125 -3.546875 L 13.578125 -13.78125 L 19.21875 -13.78125 L 13.5 0 Z M 5.90625 0 "/></g></g><g style="fill:#34a496;fill-opacity:1;"><g transform="translate(122.809508, 256.520099)"><path style="stroke:none" d="M 0.203125 0 L 5.90625 -13.78125 L 13.5 -13.78125 L 19.21875 0 L 13.578125 0 L 12.640625 -2.484375 L 6.765625 -2.484375 L 5.828125 0 Z M 8.109375 -6.03125 L 11.296875 -6.03125 L 9.703125 -10.234375 Z M 8.109375 -6.03125 "/></g></g><g style="fill:#34a496;fill-opacity:1;"><g transform="translate(142.224502, 256.520099)"><path style="stroke:none" d="M 0.390625 0 L 0.390625 -13.78125 L 11.21875 -13.78125 C 12.269531 -13.78125 13.1875 -13.550781 13.96875 -13.09375 C 14.757812 -12.644531 15.378906 -12.023438 15.828125 -11.234375 C 16.273438 -10.441406 16.5 -9.53125 16.5 -8.5 C 16.5 -7.507812 16.28125 -6.613281 15.84375 -5.8125 C 15.414062 -5.019531 14.820312 -4.398438 14.0625 -3.953125 L 16.5 0 L 10.4375 0 L 8.53125 -3.234375 L 5.515625 -3.234375 L 5.515625 0 Z M 5.515625 -7.5625 L 10.234375 -7.5625 C 10.410156 -7.5625 10.585938 -7.570312 10.765625 -7.59375 C 10.941406 -7.625 11.085938 -7.703125 11.203125 -7.828125 C 11.316406 -7.960938 11.375 -8.1875 11.375 -8.5 C 11.375 -8.820312 11.316406 -9.046875 11.203125 -9.171875 C 11.085938 -9.304688 10.941406 -9.382812 10.765625 -9.40625 C 10.585938 -9.4375 10.410156 -9.453125 10.234375 -9.453125 L 5.515625 -9.453125 Z M 5.515625 -7.5625 "/></g></g><g style="fill:#34a496;fill-opacity:1;"><g transform="translate(158.922185, 256.520099)"><path style="stroke:none" d="M 0.390625 0 L 0.390625 -13.78125 L 14.96875 -13.78125 L 14.96875 -9.84375 L 5.515625 -9.84375 L 5.515625 -8.5625 L 14.96875 -8.5625 L 14.96875 -5.21875 L 5.515625 -5.21875 L 5.515625 -3.9375 L 14.96875 -3.9375 L 14.96875 0 Z M 0.390625 0 "/></g></g><g style="fill:#34a496;fill-opacity:1;"><g transform="translate(174.083999, 256.520099)"><path style="stroke:none" d="M 0.390625 0 L 0.390625 -4.328125 L 8.65625 -9.453125 L 0.390625 -9.453125 L 0.390625 -13.78125 L 15.953125 -13.78125 L 15.953125 -9.453125 L 7.671875 -4.328125 L 15.953125 -4.328125 L 15.953125 0 Z M 0.390625 0 "/></g></g><g style="fill:#34a496;fill-opacity:1;"><g transform="translate(190.427254, 256.520099)"><path style="stroke:none" d=""/></g></g><g style="fill:#34a496;fill-opacity:1;"><g transform="translate(198.303518, 256.520099)"><path style="stroke:none" d="M 7.203125 0 L 7.203125 -4.53125 L 0.203125 -13.78125 L 6.109375 -13.78125 L 9.765625 -8.65625 L 13.421875 -13.78125 L 19.328125 -13.78125 L 12.328125 -4.53125 L 12.328125 0 Z M 7.203125 0 "/></g></g><g style="fill:#34a496;fill-opacity:1;"><g transform="translate(217.836666, 256.520099)"><path style="stroke:none" d=""/></g></g><g style="fill:#34a496;fill-opacity:1;"><g transform="translate(225.71293, 256.520099)"><path style="stroke:none" d="M 0.390625 0 L 0.390625 -13.78125 L 11.21875 -13.78125 C 12.269531 -13.78125 13.1875 -13.550781 13.96875 -13.09375 C 14.757812 -12.644531 15.378906 -12.023438 15.828125 -11.234375 C 16.273438 -10.441406 16.5 -9.53125 16.5 -8.5 C 16.5 -7.476562 16.273438 -6.570312 15.828125 -5.78125 C 15.378906 -4.988281 14.757812 -4.363281 13.96875 -3.90625 C 13.1875 -3.457031 12.269531 -3.234375 11.21875 -3.234375 L 5.515625 -3.234375 L 5.515625 0 Z M 5.515625 -7.5625 L 10.234375 -7.5625 C 10.410156 -7.5625 10.585938 -7.570312 10.765625 -7.59375 C 10.941406 -7.625 11.085938 -7.703125 11.203125 -7.828125 C 11.316406 -7.960938 11.375 -8.1875 11.375 -8.5 C 11.375 -8.820312 11.316406 -9.046875 11.203125 -9.171875 C 11.085938 -9.304688 10.941406 -9.382812 10.765625 -9.40625 C 10.585938 -9.4375 10.410156 -9.453125 10.234375 -9.453125 L 5.515625 -9.453125 Z M 5.515625 -7.5625 "/></g></g><g style="fill:#34a496;fill-opacity:1;"><g transform="translate(242.410614, 256.520099)"><path style="stroke:none" d="M 3.84375 -14.96875 L 3.84375 -17.71875 L 11.5 -19.296875 L 11.5 -16.53125 Z M 0.390625 0 L 0.390625 -13.78125 L 14.96875 -13.78125 L 14.96875 -9.84375 L 5.515625 -9.84375 L 5.515625 -8.5625 L 14.96875 -8.5625 L 14.96875 -5.21875 L 5.515625 -5.21875 L 5.515625 -3.9375 L 14.96875 -3.9375 L 14.96875 0 Z M 0.390625 0 "/></g></g><g style="fill:#34a496;fill-opacity:1;"><g transform="translate(257.572427, 256.520099)"><path style="stroke:none" d="M 0.390625 0 L 0.390625 -13.78125 L 11.21875 -13.78125 C 12.269531 -13.78125 13.1875 -13.550781 13.96875 -13.09375 C 14.757812 -12.644531 15.378906 -12.023438 15.828125 -11.234375 C 16.273438 -10.441406 16.5 -9.53125 16.5 -8.5 C 16.5 -7.507812 16.28125 -6.613281 15.84375 -5.8125 C 15.414062 -5.019531 14.820312 -4.398438 14.0625 -3.953125 L 16.5 0 L 10.4375 0 L 8.53125 -3.234375 L 5.515625 -3.234375 L 5.515625 0 Z M 5.515625 -7.5625 L 10.234375 -7.5625 C 10.410156 -7.5625 10.585938 -7.570312 10.765625 -7.59375 C 10.941406 -7.625 11.085938 -7.703125 11.203125 -7.828125 C 11.316406 -7.960938 11.375 -8.1875 11.375 -8.5 C 11.375 -8.820312 11.316406 -9.046875 11.203125 -9.171875 C 11.085938 -9.304688 10.941406 -9.382812 10.765625 -9.40625 C 10.585938 -9.4375 10.410156 -9.453125 10.234375 -9.453125 L 5.515625 -9.453125 Z M 5.515625 -7.5625 "/></g></g><g style="fill:#34a496;fill-opacity:1;"><g transform="translate(274.270122, 256.520099)"><path style="stroke:none" d="M 0.390625 0 L 0.390625 -13.78125 L 14.96875 -13.78125 L 14.96875 -9.84375 L 5.515625 -9.84375 L 5.515625 -8.5625 L 14.96875 -8.5625 L 14.96875 -5.21875 L 5.515625 -5.21875 L 5.515625 -3.9375 L 14.96875 -3.9375 L 14.96875 0 Z M 0.390625 0 "/></g></g><g style="fill:#34a496;fill-opacity:1;"><g transform="translate(289.431914, 256.520099)"><path style="stroke:none" d="M 0.390625 0 L 0.390625 -4.328125 L 8.65625 -9.453125 L 0.390625 -9.453125 L 0.390625 -13.78125 L 15.953125 -13.78125 L 15.953125 -9.453125 L 7.671875 -4.328125 L 15.953125 -4.328125 L 15.953125 0 Z M 0.390625 0 "/></g></g><g style="fill:#3871c1;fill-opacity:1;"><g transform="translate(70.527368, 228.338586)"><path style="stroke:none" d="M 0.671875 0 L 0.671875 -23.78125 L 25.8125 -23.78125 L 25.8125 -16.3125 L 9.515625 -16.3125 L 9.515625 -13.75 L 23.78125 -13.75 L 23.78125 -6.28125 L 9.515625 -6.28125 L 9.515625 0 Z M 0.671875 0 "/></g></g><g style="fill:#3871c1;fill-opacity:1;"><g transform="translate(96.688487, 228.338586)"><path style="stroke:none" d="M 0.34375 0 L 10.1875 -23.78125 L 23.296875 -23.78125 L 33.15625 0 L 23.4375 0 L 21.8125 -4.28125 L 11.6875 -4.28125 L 10.0625 0 Z M 14 -10.390625 L 19.5 -10.390625 L 16.75 -17.65625 Z M 14 -10.390625 "/></g></g><g style="fill:#3871c1;fill-opacity:1;"><g transform="translate(130.188303, 228.338586)"><path style="stroke:none" d="M 0.671875 0 L 0.671875 -23.78125 L 19.359375 -23.78125 C 21.171875 -23.78125 22.753906 -23.390625 24.109375 -22.609375 C 25.472656 -21.828125 26.539062 -20.75 27.3125 -19.375 C 28.082031 -18.007812 28.46875 -16.441406 28.46875 -14.671875 C 28.46875 -12.953125 28.09375 -11.40625 27.34375 -10.03125 C 26.59375 -8.664062 25.5625 -7.597656 24.25 -6.828125 L 28.46875 0 L 18 0 L 14.703125 -5.578125 L 9.515625 -5.578125 L 9.515625 0 Z M 9.515625 -13.046875 L 17.65625 -13.046875 C 17.957031 -13.046875 18.257812 -13.066406 18.5625 -13.109375 C 18.863281 -13.160156 19.117188 -13.296875 19.328125 -13.515625 C 19.535156 -13.742188 19.640625 -14.128906 19.640625 -14.671875 C 19.640625 -15.210938 19.535156 -15.597656 19.328125 -15.828125 C 19.117188 -16.054688 18.863281 -16.191406 18.5625 -16.234375 C 18.257812 -16.285156 17.957031 -16.3125 17.65625 -16.3125 L 9.515625 -16.3125 Z M 9.515625 -13.046875 "/></g></g><g style="fill:#3871c1;fill-opacity:1;"><g transform="translate(158.999505, 228.338586)"><path style="stroke:none" d="M 0.671875 0 L 0.671875 -23.78125 L 11.546875 -23.78125 L 18.890625 -10.1875 L 26.21875 -23.78125 L 37.09375 -23.78125 L 37.09375 0 L 28.265625 0 L 28.265625 -11.3125 L 21.78125 0 L 16 0 L 9.515625 -11.3125 L 9.515625 0 Z M 0.671875 0 "/></g></g><g style="fill:#3871c1;fill-opacity:1;"><g transform="translate(196.780233, 228.338586)"><path style="stroke:none" d="M 0.34375 0 L 10.1875 -23.78125 L 23.296875 -23.78125 L 33.15625 0 L 23.4375 0 L 21.8125 -4.28125 L 11.6875 -4.28125 L 10.0625 0 Z M 14 -10.390625 L 19.5 -10.390625 L 16.75 -17.65625 Z M 14 -10.390625 "/></g></g><g style="fill:#3871c1;fill-opacity:1;"><g transform="translate(230.280049, 228.338586)"><path style="stroke:none" d="M 15.28125 0.34375 C 10.050781 0.34375 6.253906 -0.660156 3.890625 -2.671875 C 1.523438 -4.691406 0.34375 -7.773438 0.34375 -11.921875 C 0.34375 -16.046875 1.523438 -19.109375 3.890625 -21.109375 C 6.253906 -23.117188 10.050781 -24.125 15.28125 -24.125 C 20.039062 -24.125 23.660156 -23.253906 26.140625 -21.515625 C 28.617188 -19.785156 29.945312 -17.039062 30.125 -13.28125 L 21.09375 -13.28125 C 20.9375 -14.414062 20.398438 -15.257812 19.484375 -15.8125 C 18.566406 -16.363281 17.164062 -16.640625 15.28125 -16.640625 C 13.539062 -16.640625 12.234375 -16.414062 11.359375 -15.96875 C 10.492188 -15.53125 9.910156 -14.957031 9.609375 -14.25 C 9.316406 -13.539062 9.171875 -12.765625 9.171875 -11.921875 C 9.171875 -11.085938 9.316406 -10.300781 9.609375 -9.5625 C 9.910156 -8.820312 10.5 -8.234375 11.375 -7.796875 C 12.257812 -7.359375 13.5625 -7.140625 15.28125 -7.140625 C 17.164062 -7.140625 18.566406 -7.425781 19.484375 -8 C 20.398438 -8.570312 20.9375 -9.425781 21.09375 -10.5625 L 30.125 -10.5625 C 29.945312 -6.800781 28.625 -4.039062 26.15625 -2.28125 C 23.6875 -0.53125 20.0625 0.34375 15.28125 0.34375 Z M 15.28125 0.34375 "/></g></g><g style="fill:#3871c1;fill-opacity:1;"><g transform="translate(260.756054, 228.338586)"><path style="stroke:none" d="M 0.671875 0 L 0.671875 -23.78125 L 9.515625 -23.78125 L 9.515625 0 Z M 0.671875 0 "/></g></g><g style="fill:#3871c1;fill-opacity:1;"><g transform="translate(270.948703, 228.338586)"><path style="stroke:none" d="M 0.34375 0 L 10.1875 -23.78125 L 23.296875 -23.78125 L 33.15625 0 L 23.4375 0 L 21.8125 -4.28125 L 11.6875 -4.28125 L 10.0625 0 Z M 14 -10.390625 L 19.5 -10.390625 L 16.75 -17.65625 Z M 14 -10.390625 "/></g></g></g></svg>