<svg xmlns="http://www.w3.org/2000/svg" xmlns:xlink="http://www.w3.org/1999/xlink" width="500" zoomAndPan="magnify" viewBox="0 0 375 374.999991" height="500" preserveAspectRatio="xMidYMid meet" version="1.2"><defs><clipPath id="d8f3cc568b"><path d="M 147.453125 91.128906 L 233.53125 91.128906 L 233.53125 156.90625 L 147.453125 156.90625 Z M 147.453125 91.128906 "/></clipPath><clipPath id="a7eb17e5aa"><path d="M 177.226562 156.90625 L 203.886719 156.90625 C 206.15625 156.90625 208.203125 155.539062 209.0625 153.4375 L 233.261719 94.597656 C 233.578125 93.824219 233.492188 92.941406 233.023438 92.242188 C 232.558594 91.546875 231.773438 91.128906 230.9375 91.128906 L 150.175781 91.128906 C 149.339844 91.128906 148.554688 91.546875 148.089844 92.242188 C 147.621094 92.941406 147.535156 93.824219 147.851562 94.597656 L 172.050781 153.4375 C 172.910156 155.539062 174.957031 156.90625 177.226562 156.90625 Z M 177.226562 156.90625 "/></clipPath></defs><g id="720c14529b"><rect x="0" width="375" y="0" height="374.999991" style="fill:#ffffff;fill-opacity:1;stroke:none;"/><rect x="0" width="375" y="0" height="374.999991" style="fill:#ffffff;fill-opacity:1;stroke:none;"/><g style="fill:#f80302;fill-opacity:1;"><g transform="translate(59.873167, 231.824479)"><path style="stroke:none" d="M 31.578125 -13.65625 C 31.578125 -9.269531 30.253906 -5.894531 27.609375 -3.53125 C 24.960938 -1.175781 21.539062 0 17.34375 0 L 3.96875 0 C 3.726562 0 3.523438 -0.0820312 3.359375 -0.25 C 3.191406 -0.414062 3.109375 -0.613281 3.109375 -0.84375 L 3.109375 -48.703125 C 3.109375 -48.941406 3.191406 -49.144531 3.359375 -49.3125 C 3.523438 -49.476562 3.726562 -49.5625 3.96875 -49.5625 L 15.78125 -49.5625 C 20.507812 -49.5625 24.207031 -48.425781 26.875 -46.15625 C 29.539062 -43.894531 30.875 -40.519531 30.875 -36.03125 C 30.875 -31.363281 29.265625 -27.96875 26.046875 -25.84375 C 25.859375 -25.695312 25.835938 -25.554688 25.984375 -25.421875 C 29.710938 -22.773438 31.578125 -18.851562 31.578125 -13.65625 Z M 13.453125 -40.984375 C 13.210938 -40.984375 13.09375 -40.867188 13.09375 -40.640625 L 13.09375 -29.515625 C 13.09375 -29.285156 13.210938 -29.171875 13.453125 -29.171875 L 16 -29.171875 C 17.601562 -29.171875 18.851562 -29.675781 19.75 -30.6875 C 20.644531 -31.707031 21.09375 -33.132812 21.09375 -34.96875 C 21.09375 -36.90625 20.65625 -38.390625 19.78125 -39.421875 C 18.914062 -40.460938 17.65625 -40.984375 16 -40.984375 Z M 16.5625 -8.640625 C 18.125 -8.640625 19.351562 -9.203125 20.25 -10.328125 C 21.144531 -11.460938 21.59375 -13.070312 21.59375 -15.15625 C 21.59375 -17.226562 21.144531 -18.878906 20.25 -20.109375 C 19.351562 -21.335938 18.148438 -21.953125 16.640625 -21.953125 L 13.453125 -21.953125 C 13.210938 -21.953125 13.09375 -21.832031 13.09375 -21.59375 L 13.09375 -8.984375 C 13.09375 -8.753906 13.210938 -8.640625 13.453125 -8.640625 Z M 16.5625 -8.640625 "/></g></g><g style="fill:#f80302;fill-opacity:1;"><g transform="translate(93.138224, 231.824479)"><path style="stroke:none" d="M 16.703125 0.5625 C 12.359375 0.5625 8.890625 -0.707031 6.296875 -3.25 C 3.703125 -5.800781 2.40625 -9.203125 2.40625 -13.453125 L 2.40625 -36.109375 C 2.40625 -40.359375 3.703125 -43.753906 6.296875 -46.296875 C 8.890625 -48.847656 12.359375 -50.125 16.703125 -50.125 C 21.046875 -50.125 24.523438 -48.847656 27.140625 -46.296875 C 29.765625 -43.753906 31.078125 -40.359375 31.078125 -36.109375 L 31.078125 -13.453125 C 31.078125 -9.203125 29.765625 -5.800781 27.140625 -3.25 C 24.523438 -0.707031 21.046875 0.5625 16.703125 0.5625 Z M 16.703125 -8 C 18.023438 -8 19.085938 -8.457031 19.890625 -9.375 C 20.691406 -10.300781 21.09375 -11.519531 21.09375 -13.03125 L 21.09375 -36.53125 C 21.09375 -38.039062 20.691406 -39.253906 19.890625 -40.171875 C 19.085938 -41.097656 18.023438 -41.5625 16.703125 -41.5625 C 15.378906 -41.5625 14.328125 -41.097656 13.546875 -40.171875 C 12.773438 -39.253906 12.390625 -38.039062 12.390625 -36.53125 L 12.390625 -13.03125 C 12.390625 -11.519531 12.773438 -10.300781 13.546875 -9.375 C 14.328125 -8.457031 15.378906 -8 16.703125 -8 Z M 16.703125 -8 "/></g></g><g style="fill:#f80302;fill-opacity:1;"><g transform="translate(126.6156, 231.824479)"><path style="stroke:none" d="M 22.65625 0 C 22.132812 0 21.800781 -0.234375 21.65625 -0.703125 L 16.21875 -20.25 C 16.125 -20.4375 16.003906 -20.53125 15.859375 -20.53125 L 13.453125 -20.53125 C 13.210938 -20.53125 13.09375 -20.410156 13.09375 -20.171875 L 13.09375 -0.84375 C 13.09375 -0.613281 13.007812 -0.414062 12.84375 -0.25 C 12.6875 -0.0820312 12.488281 0 12.25 0 L 3.96875 0 C 3.726562 0 3.523438 -0.0820312 3.359375 -0.25 C 3.191406 -0.414062 3.109375 -0.613281 3.109375 -0.84375 L 3.109375 -48.703125 C 3.109375 -48.941406 3.191406 -49.144531 3.359375 -49.3125 C 3.523438 -49.476562 3.726562 -49.5625 3.96875 -49.5625 L 18.265625 -49.5625 C 20.859375 -49.5625 23.171875 -48.9375 25.203125 -47.6875 C 27.234375 -46.4375 28.800781 -44.675781 29.90625 -42.40625 C 31.019531 -40.144531 31.578125 -37.550781 31.578125 -34.625 C 31.578125 -31.832031 31.046875 -29.375 29.984375 -27.25 C 28.921875 -25.132812 27.445312 -23.484375 25.5625 -22.296875 C 25.46875 -22.253906 25.394531 -22.195312 25.34375 -22.125 C 25.300781 -22.050781 25.300781 -21.96875 25.34375 -21.875 L 31.859375 -0.984375 L 31.921875 -0.703125 C 31.921875 -0.234375 31.664062 0 31.15625 0 Z M 13.453125 -40.984375 C 13.210938 -40.984375 13.09375 -40.867188 13.09375 -40.640625 L 13.09375 -28.53125 C 13.09375 -28.289062 13.210938 -28.171875 13.453125 -28.171875 L 16.640625 -28.171875 C 18.097656 -28.171875 19.285156 -28.75 20.203125 -29.90625 C 21.128906 -31.0625 21.59375 -32.609375 21.59375 -34.546875 C 21.59375 -36.523438 21.128906 -38.09375 20.203125 -39.25 C 19.285156 -40.40625 18.097656 -40.984375 16.640625 -40.984375 Z M 13.453125 -40.984375 "/></g></g><g style="fill:#f80302;fill-opacity:1;"><g transform="translate(159.951436, 231.824479)"><path style="stroke:none" d="M 16.5 0.5625 C 12.25 0.5625 8.835938 -0.695312 6.265625 -3.21875 C 3.691406 -5.75 2.40625 -9.132812 2.40625 -13.375 L 2.40625 -36.3125 C 2.40625 -40.519531 3.691406 -43.875 6.265625 -46.375 C 8.835938 -48.875 12.25 -50.125 16.5 -50.125 C 20.789062 -50.125 24.222656 -48.875 26.796875 -46.375 C 29.367188 -43.875 30.65625 -40.519531 30.65625 -36.3125 L 30.65625 -35.546875 C 30.65625 -35.304688 30.570312 -35.101562 30.40625 -34.9375 C 30.238281 -34.769531 30.039062 -34.6875 29.8125 -34.6875 L 21.515625 -34.34375 C 20.953125 -34.34375 20.671875 -34.597656 20.671875 -35.109375 L 20.671875 -36.953125 C 20.671875 -38.328125 20.289062 -39.4375 19.53125 -40.28125 C 18.78125 -41.132812 17.769531 -41.5625 16.5 -41.5625 C 15.269531 -41.5625 14.273438 -41.132812 13.515625 -40.28125 C 12.765625 -39.4375 12.390625 -38.328125 12.390625 -36.953125 L 12.390625 -12.53125 C 12.390625 -11.164062 12.765625 -10.066406 13.515625 -9.234375 C 14.273438 -8.410156 15.269531 -8 16.5 -8 C 17.769531 -8 18.78125 -8.410156 19.53125 -9.234375 C 20.289062 -10.066406 20.671875 -11.164062 20.671875 -12.53125 L 20.671875 -14.4375 C 20.671875 -14.675781 20.753906 -14.878906 20.921875 -15.046875 C 21.085938 -15.210938 21.285156 -15.296875 21.515625 -15.296875 L 29.8125 -14.9375 C 30.039062 -14.9375 30.238281 -14.851562 30.40625 -14.6875 C 30.570312 -14.519531 30.65625 -14.320312 30.65625 -14.09375 L 30.65625 -13.375 C 30.65625 -9.132812 29.359375 -5.75 26.765625 -3.21875 C 24.171875 -0.695312 20.75 0.5625 16.5 0.5625 Z M 16.5 0.5625 "/></g></g><g style="fill:#f80302;fill-opacity:1;"><g transform="translate(192.791836, 231.824479)"><path style="stroke:none" d="M 29.09375 -41.84375 C 29.09375 -41.601562 29.007812 -41.398438 28.84375 -41.234375 C 28.6875 -41.066406 28.488281 -40.984375 28.25 -40.984375 L 13.453125 -40.984375 C 13.210938 -40.984375 13.09375 -40.867188 13.09375 -40.640625 L 13.09375 -29.453125 C 13.09375 -29.210938 13.210938 -29.09375 13.453125 -29.09375 L 21.953125 -29.09375 C 22.179688 -29.09375 22.378906 -29.007812 22.546875 -28.84375 C 22.710938 -28.6875 22.796875 -28.488281 22.796875 -28.25 L 22.796875 -21.375 C 22.796875 -21.144531 22.710938 -20.945312 22.546875 -20.78125 C 22.378906 -20.613281 22.179688 -20.53125 21.953125 -20.53125 L 13.453125 -20.53125 C 13.210938 -20.53125 13.09375 -20.410156 13.09375 -20.171875 L 13.09375 -8.921875 C 13.09375 -8.679688 13.210938 -8.5625 13.453125 -8.5625 L 28.25 -8.5625 C 28.488281 -8.5625 28.6875 -8.476562 28.84375 -8.3125 C 29.007812 -8.15625 29.09375 -7.957031 29.09375 -7.71875 L 29.09375 -0.84375 C 29.09375 -0.613281 29.007812 -0.414062 28.84375 -0.25 C 28.6875 -0.0820312 28.488281 0 28.25 0 L 3.96875 0 C 3.726562 0 3.523438 -0.0820312 3.359375 -0.25 C 3.191406 -0.414062 3.109375 -0.613281 3.109375 -0.84375 L 3.109375 -48.703125 C 3.109375 -48.941406 3.191406 -49.144531 3.359375 -49.3125 C 3.523438 -49.476562 3.726562 -49.5625 3.96875 -49.5625 L 28.25 -49.5625 C 28.488281 -49.5625 28.6875 -49.476562 28.84375 -49.3125 C 29.007812 -49.144531 29.09375 -48.941406 29.09375 -48.703125 Z M 29.09375 -41.84375 "/></g></g><g style="fill:#f80302;fill-opacity:1;"><g transform="translate(223.792029, 231.824479)"><path style="stroke:none" d="M 3.96875 0 C 3.726562 0 3.523438 -0.0820312 3.359375 -0.25 C 3.191406 -0.414062 3.109375 -0.613281 3.109375 -0.84375 L 3.109375 -48.703125 C 3.109375 -48.941406 3.191406 -49.144531 3.359375 -49.3125 C 3.523438 -49.476562 3.726562 -49.5625 3.96875 -49.5625 L 12.25 -49.5625 C 12.488281 -49.5625 12.6875 -49.476562 12.84375 -49.3125 C 13.007812 -49.144531 13.09375 -48.941406 13.09375 -48.703125 L 13.09375 -8.921875 C 13.09375 -8.679688 13.210938 -8.5625 13.453125 -8.5625 L 28.3125 -8.5625 C 28.550781 -8.5625 28.753906 -8.476562 28.921875 -8.3125 C 29.085938 -8.15625 29.171875 -7.957031 29.171875 -7.71875 L 29.171875 -0.84375 C 29.171875 -0.613281 29.085938 -0.414062 28.921875 -0.25 C 28.753906 -0.0820312 28.550781 0 28.3125 0 Z M 3.96875 0 "/></g></g><g style="fill:#f80302;fill-opacity:1;"><g transform="translate(253.942906, 231.824479)"><path style="stroke:none" d="M 3.96875 0 C 3.726562 0 3.523438 -0.0820312 3.359375 -0.25 C 3.191406 -0.414062 3.109375 -0.613281 3.109375 -0.84375 L 3.109375 -48.703125 C 3.109375 -48.941406 3.191406 -49.144531 3.359375 -49.3125 C 3.523438 -49.476562 3.726562 -49.5625 3.96875 -49.5625 L 12.25 -49.5625 C 12.488281 -49.5625 12.6875 -49.476562 12.84375 -49.3125 C 13.007812 -49.144531 13.09375 -48.941406 13.09375 -48.703125 L 13.09375 -8.921875 C 13.09375 -8.679688 13.210938 -8.5625 13.453125 -8.5625 L 28.3125 -8.5625 C 28.550781 -8.5625 28.753906 -8.476562 28.921875 -8.3125 C 29.085938 -8.15625 29.171875 -7.957031 29.171875 -7.71875 L 29.171875 -0.84375 C 29.171875 -0.613281 29.085938 -0.414062 28.921875 -0.25 C 28.753906 -0.0820312 28.550781 0 28.3125 0 Z M 3.96875 0 "/></g></g><g style="fill:#f80302;fill-opacity:1;"><g transform="translate(284.093784, 231.824479)"><path style="stroke:none" d="M 29.09375 -41.84375 C 29.09375 -41.601562 29.007812 -41.398438 28.84375 -41.234375 C 28.6875 -41.066406 28.488281 -40.984375 28.25 -40.984375 L 13.453125 -40.984375 C 13.210938 -40.984375 13.09375 -40.867188 13.09375 -40.640625 L 13.09375 -29.453125 C 13.09375 -29.210938 13.210938 -29.09375 13.453125 -29.09375 L 21.953125 -29.09375 C 22.179688 -29.09375 22.378906 -29.007812 22.546875 -28.84375 C 22.710938 -28.6875 22.796875 -28.488281 22.796875 -28.25 L 22.796875 -21.375 C 22.796875 -21.144531 22.710938 -20.945312 22.546875 -20.78125 C 22.378906 -20.613281 22.179688 -20.53125 21.953125 -20.53125 L 13.453125 -20.53125 C 13.210938 -20.53125 13.09375 -20.410156 13.09375 -20.171875 L 13.09375 -8.921875 C 13.09375 -8.679688 13.210938 -8.5625 13.453125 -8.5625 L 28.25 -8.5625 C 28.488281 -8.5625 28.6875 -8.476562 28.84375 -8.3125 C 29.007812 -8.15625 29.09375 -7.957031 29.09375 -7.71875 L 29.09375 -0.84375 C 29.09375 -0.613281 29.007812 -0.414062 28.84375 -0.25 C 28.6875 -0.0820312 28.488281 0 28.25 0 L 3.96875 0 C 3.726562 0 3.523438 -0.0820312 3.359375 -0.25 C 3.191406 -0.414062 3.109375 -0.613281 3.109375 -0.84375 L 3.109375 -48.703125 C 3.109375 -48.941406 3.191406 -49.144531 3.359375 -49.3125 C 3.523438 -49.476562 3.726562 -49.5625 3.96875 -49.5625 L 28.25 -49.5625 C 28.488281 -49.5625 28.6875 -49.476562 28.84375 -49.3125 C 29.007812 -49.144531 29.09375 -48.941406 29.09375 -48.703125 Z M 29.09375 -41.84375 "/></g></g><g style="fill:#f80302;fill-opacity:1;"><g transform="translate(120.675848, 264.090304)"><path style="stroke:none" d="M 9 0 C 8.78125 0 8.660156 -0.0976562 8.640625 -0.296875 L 8.21875 -2.84375 C 8.21875 -2.9375 8.164062 -2.984375 8.0625 -2.984375 L 4.6875 -2.984375 C 4.582031 -2.984375 4.53125 -2.9375 4.53125 -2.84375 L 4.09375 -0.296875 C 4.082031 -0.0976562 3.96875 0 3.75 0 L 0.640625 0 C 0.410156 0 0.320312 -0.113281 0.375 -0.34375 L 4.28125 -18.328125 C 4.320312 -18.523438 4.4375 -18.625 4.625 -18.625 L 8.21875 -18.625 C 8.414062 -18.625 8.53125 -18.523438 8.5625 -18.328125 L 12.453125 -0.34375 L 12.484375 -0.234375 C 12.484375 -0.078125 12.382812 0 12.1875 0 Z M 5.0625 -6.015625 C 5.0625 -5.921875 5.09375 -5.875 5.15625 -5.875 L 7.5625 -5.875 C 7.644531 -5.875 7.675781 -5.921875 7.65625 -6.015625 L 6.40625 -13.28125 C 6.394531 -13.332031 6.367188 -13.359375 6.328125 -13.359375 C 6.296875 -13.359375 6.269531 -13.332031 6.25 -13.28125 Z M 5.0625 -6.015625 "/></g></g><g style="fill:#f80302;fill-opacity:1;"><g transform="translate(136.237423, 264.090304)"><path style="stroke:none" d="M 11.875 -5.140625 C 11.875 -3.484375 11.375 -2.210938 10.375 -1.328125 C 9.382812 -0.441406 8.097656 0 6.515625 0 L 1.484375 0 C 1.398438 0 1.328125 -0.03125 1.265625 -0.09375 C 1.203125 -0.15625 1.171875 -0.226562 1.171875 -0.3125 L 1.171875 -18.3125 C 1.171875 -18.394531 1.203125 -18.46875 1.265625 -18.53125 C 1.328125 -18.59375 1.398438 -18.625 1.484375 -18.625 L 5.9375 -18.625 C 7.707031 -18.625 9.09375 -18.195312 10.09375 -17.34375 C 11.101562 -16.5 11.609375 -15.234375 11.609375 -13.546875 C 11.609375 -11.785156 11.003906 -10.507812 9.796875 -9.71875 C 9.722656 -9.65625 9.710938 -9.597656 9.765625 -9.546875 C 11.171875 -8.554688 11.875 -7.085938 11.875 -5.140625 Z M 5.0625 -15.40625 C 4.96875 -15.40625 4.921875 -15.363281 4.921875 -15.28125 L 4.921875 -11.09375 C 4.921875 -11.007812 4.96875 -10.96875 5.0625 -10.96875 L 6.015625 -10.96875 C 6.617188 -10.96875 7.085938 -11.15625 7.421875 -11.53125 C 7.753906 -11.914062 7.921875 -12.453125 7.921875 -13.140625 C 7.921875 -13.867188 7.753906 -14.425781 7.421875 -14.8125 C 7.097656 -15.207031 6.628906 -15.40625 6.015625 -15.40625 Z M 6.234375 -3.25 C 6.816406 -3.25 7.273438 -3.460938 7.609375 -3.890625 C 7.941406 -4.316406 8.109375 -4.914062 8.109375 -5.6875 C 8.109375 -6.46875 7.941406 -7.085938 7.609375 -7.546875 C 7.273438 -8.015625 6.820312 -8.25 6.25 -8.25 L 5.0625 -8.25 C 4.96875 -8.25 4.921875 -8.203125 4.921875 -8.109375 L 4.921875 -3.375 C 4.921875 -3.289062 4.96875 -3.25 5.0625 -3.25 Z M 6.234375 -3.25 "/></g></g><g style="fill:#f80302;fill-opacity:1;"><g transform="translate(151.479822, 264.090304)"><path style="stroke:none" d="M 9 0 C 8.78125 0 8.660156 -0.0976562 8.640625 -0.296875 L 8.21875 -2.84375 C 8.21875 -2.9375 8.164062 -2.984375 8.0625 -2.984375 L 4.6875 -2.984375 C 4.582031 -2.984375 4.53125 -2.9375 4.53125 -2.84375 L 4.09375 -0.296875 C 4.082031 -0.0976562 3.96875 0 3.75 0 L 0.640625 0 C 0.410156 0 0.320312 -0.113281 0.375 -0.34375 L 4.28125 -18.328125 C 4.320312 -18.523438 4.4375 -18.625 4.625 -18.625 L 8.21875 -18.625 C 8.414062 -18.625 8.53125 -18.523438 8.5625 -18.328125 L 12.453125 -0.34375 L 12.484375 -0.234375 C 12.484375 -0.078125 12.382812 0 12.1875 0 Z M 5.0625 -6.015625 C 5.0625 -5.921875 5.09375 -5.875 5.15625 -5.875 L 7.5625 -5.875 C 7.644531 -5.875 7.675781 -5.921875 7.65625 -6.015625 L 6.40625 -13.28125 C 6.394531 -13.332031 6.367188 -13.359375 6.328125 -13.359375 C 6.296875 -13.359375 6.269531 -13.332031 6.25 -13.28125 Z M 5.0625 -6.015625 "/></g></g><g style="fill:#f80302;fill-opacity:1;"><g transform="translate(167.041396, 264.090304)"><path style="stroke:none" d="M 8.515625 0 C 8.316406 0 8.191406 -0.0859375 8.140625 -0.265625 L 6.09375 -7.609375 C 6.0625 -7.679688 6.015625 -7.71875 5.953125 -7.71875 L 5.0625 -7.71875 C 4.96875 -7.71875 4.921875 -7.671875 4.921875 -7.578125 L 4.921875 -0.3125 C 4.921875 -0.226562 4.890625 -0.15625 4.828125 -0.09375 C 4.765625 -0.03125 4.691406 0 4.609375 0 L 1.484375 0 C 1.398438 0 1.328125 -0.03125 1.265625 -0.09375 C 1.203125 -0.15625 1.171875 -0.226562 1.171875 -0.3125 L 1.171875 -18.3125 C 1.171875 -18.394531 1.203125 -18.46875 1.265625 -18.53125 C 1.328125 -18.59375 1.398438 -18.625 1.484375 -18.625 L 6.859375 -18.625 C 7.835938 -18.625 8.707031 -18.390625 9.46875 -17.921875 C 10.226562 -17.453125 10.816406 -16.789062 11.234375 -15.9375 C 11.660156 -15.082031 11.875 -14.109375 11.875 -13.015625 C 11.875 -11.960938 11.671875 -11.035156 11.265625 -10.234375 C 10.867188 -9.441406 10.316406 -8.820312 9.609375 -8.375 C 9.566406 -8.363281 9.535156 -8.34375 9.515625 -8.3125 C 9.503906 -8.289062 9.507812 -8.257812 9.53125 -8.21875 L 11.96875 -0.375 L 12 -0.265625 C 12 -0.0859375 11.898438 0 11.703125 0 Z M 5.0625 -15.40625 C 4.96875 -15.40625 4.921875 -15.363281 4.921875 -15.28125 L 4.921875 -10.71875 C 4.921875 -10.632812 4.96875 -10.59375 5.0625 -10.59375 L 6.25 -10.59375 C 6.800781 -10.59375 7.25 -10.804688 7.59375 -11.234375 C 7.9375 -11.671875 8.109375 -12.253906 8.109375 -12.984375 C 8.109375 -13.734375 7.9375 -14.320312 7.59375 -14.75 C 7.25 -15.1875 6.800781 -15.40625 6.25 -15.40625 Z M 5.0625 -15.40625 "/></g></g><g style="fill:#f80302;fill-opacity:1;"><g transform="translate(182.310399, 264.090304)"><path style="stroke:none" d="M 8.515625 0 C 8.316406 0 8.191406 -0.0859375 8.140625 -0.265625 L 6.09375 -7.609375 C 6.0625 -7.679688 6.015625 -7.71875 5.953125 -7.71875 L 5.0625 -7.71875 C 4.96875 -7.71875 4.921875 -7.671875 4.921875 -7.578125 L 4.921875 -0.3125 C 4.921875 -0.226562 4.890625 -0.15625 4.828125 -0.09375 C 4.765625 -0.03125 4.691406 0 4.609375 0 L 1.484375 0 C 1.398438 0 1.328125 -0.03125 1.265625 -0.09375 C 1.203125 -0.15625 1.171875 -0.226562 1.171875 -0.3125 L 1.171875 -18.3125 C 1.171875 -18.394531 1.203125 -18.46875 1.265625 -18.53125 C 1.328125 -18.59375 1.398438 -18.625 1.484375 -18.625 L 6.859375 -18.625 C 7.835938 -18.625 8.707031 -18.390625 9.46875 -17.921875 C 10.226562 -17.453125 10.816406 -16.789062 11.234375 -15.9375 C 11.660156 -15.082031 11.875 -14.109375 11.875 -13.015625 C 11.875 -11.960938 11.671875 -11.035156 11.265625 -10.234375 C 10.867188 -9.441406 10.316406 -8.820312 9.609375 -8.375 C 9.566406 -8.363281 9.535156 -8.34375 9.515625 -8.3125 C 9.503906 -8.289062 9.507812 -8.257812 9.53125 -8.21875 L 11.96875 -0.375 L 12 -0.265625 C 12 -0.0859375 11.898438 0 11.703125 0 Z M 5.0625 -15.40625 C 4.96875 -15.40625 4.921875 -15.363281 4.921875 -15.28125 L 4.921875 -10.71875 C 4.921875 -10.632812 4.96875 -10.59375 5.0625 -10.59375 L 6.25 -10.59375 C 6.800781 -10.59375 7.25 -10.804688 7.59375 -11.234375 C 7.9375 -11.671875 8.109375 -12.253906 8.109375 -12.984375 C 8.109375 -13.734375 7.9375 -14.320312 7.59375 -14.75 C 7.25 -15.1875 6.800781 -15.40625 6.25 -15.40625 Z M 5.0625 -15.40625 "/></g></g><g style="fill:#f80302;fill-opacity:1;"><g transform="translate(197.579403, 264.090304)"><path style="stroke:none" d="M 6.28125 0.21875 C 4.644531 0.21875 3.335938 -0.257812 2.359375 -1.21875 C 1.390625 -2.175781 0.90625 -3.457031 0.90625 -5.0625 L 0.90625 -13.578125 C 0.90625 -15.171875 1.390625 -16.445312 2.359375 -17.40625 C 3.335938 -18.363281 4.644531 -18.84375 6.28125 -18.84375 C 7.914062 -18.84375 9.222656 -18.363281 10.203125 -17.40625 C 11.191406 -16.445312 11.6875 -15.171875 11.6875 -13.578125 L 11.6875 -5.0625 C 11.6875 -3.457031 11.191406 -2.175781 10.203125 -1.21875 C 9.222656 -0.257812 7.914062 0.21875 6.28125 0.21875 Z M 6.28125 -3 C 6.78125 -3 7.175781 -3.171875 7.46875 -3.515625 C 7.769531 -3.867188 7.921875 -4.328125 7.921875 -4.890625 L 7.921875 -13.734375 C 7.921875 -14.296875 7.769531 -14.75 7.46875 -15.09375 C 7.175781 -15.445312 6.78125 -15.625 6.28125 -15.625 C 5.78125 -15.625 5.382812 -15.445312 5.09375 -15.09375 C 4.800781 -14.75 4.65625 -14.296875 4.65625 -13.734375 L 4.65625 -4.890625 C 4.65625 -4.328125 4.800781 -3.867188 5.09375 -3.515625 C 5.382812 -3.171875 5.78125 -3 6.28125 -3 Z M 6.28125 -3 "/></g></g><g style="fill:#f80302;fill-opacity:1;"><g transform="translate(212.901595, 264.090304)"><path style="stroke:none" d="M 11.5 -18.625 C 11.582031 -18.625 11.65625 -18.59375 11.71875 -18.53125 C 11.78125 -18.46875 11.8125 -18.394531 11.8125 -18.3125 L 11.8125 -15.71875 C 11.8125 -15.632812 11.78125 -15.5625 11.71875 -15.5 C 11.65625 -15.4375 11.582031 -15.40625 11.5 -15.40625 L 8.171875 -15.40625 C 8.078125 -15.40625 8.03125 -15.363281 8.03125 -15.28125 L 8.03125 -0.3125 C 8.03125 -0.226562 8 -0.15625 7.9375 -0.09375 C 7.875 -0.03125 7.800781 0 7.71875 0 L 4.609375 0 C 4.515625 0 4.4375 -0.03125 4.375 -0.09375 C 4.3125 -0.15625 4.28125 -0.226562 4.28125 -0.3125 L 4.28125 -15.28125 C 4.28125 -15.363281 4.238281 -15.40625 4.15625 -15.40625 L 0.953125 -15.40625 C 0.867188 -15.40625 0.796875 -15.4375 0.734375 -15.5 C 0.671875 -15.5625 0.640625 -15.632812 0.640625 -15.71875 L 0.640625 -18.3125 C 0.640625 -18.394531 0.671875 -18.46875 0.734375 -18.53125 C 0.796875 -18.59375 0.867188 -18.625 0.953125 -18.625 Z M 11.5 -18.625 "/></g></g><g style="fill:#f80302;fill-opacity:1;"><g transform="translate(228.090805, 264.090304)"><path style="stroke:none" d="M 10.9375 -15.71875 C 10.9375 -15.632812 10.90625 -15.5625 10.84375 -15.5 C 10.78125 -15.4375 10.703125 -15.40625 10.609375 -15.40625 L 5.0625 -15.40625 C 4.96875 -15.40625 4.921875 -15.363281 4.921875 -15.28125 L 4.921875 -11.0625 C 4.921875 -10.976562 4.96875 -10.9375 5.0625 -10.9375 L 8.25 -10.9375 C 8.332031 -10.9375 8.40625 -10.90625 8.46875 -10.84375 C 8.53125 -10.78125 8.5625 -10.703125 8.5625 -10.609375 L 8.5625 -8.03125 C 8.5625 -7.945312 8.53125 -7.875 8.46875 -7.8125 C 8.40625 -7.75 8.332031 -7.71875 8.25 -7.71875 L 5.0625 -7.71875 C 4.96875 -7.71875 4.921875 -7.671875 4.921875 -7.578125 L 4.921875 -3.359375 C 4.921875 -3.265625 4.96875 -3.21875 5.0625 -3.21875 L 10.609375 -3.21875 C 10.703125 -3.21875 10.78125 -3.1875 10.84375 -3.125 C 10.90625 -3.0625 10.9375 -2.988281 10.9375 -2.90625 L 10.9375 -0.3125 C 10.9375 -0.226562 10.90625 -0.15625 10.84375 -0.09375 C 10.78125 -0.03125 10.703125 0 10.609375 0 L 1.484375 0 C 1.398438 0 1.328125 -0.03125 1.265625 -0.09375 C 1.203125 -0.15625 1.171875 -0.226562 1.171875 -0.3125 L 1.171875 -18.3125 C 1.171875 -18.394531 1.203125 -18.46875 1.265625 -18.53125 C 1.328125 -18.59375 1.398438 -18.625 1.484375 -18.625 L 10.609375 -18.625 C 10.703125 -18.625 10.78125 -18.59375 10.84375 -18.53125 C 10.90625 -18.46875 10.9375 -18.394531 10.9375 -18.3125 Z M 10.9375 -15.71875 "/></g></g><g style="fill:#f80302;fill-opacity:1;"><g transform="translate(242.482094, 264.090304)"><path style="stroke:none" d="M 5.953125 0.21875 C 4.929688 0.21875 4.03125 0.015625 3.25 -0.390625 C 2.46875 -0.804688 1.863281 -1.378906 1.4375 -2.109375 C 1.007812 -2.847656 0.796875 -3.695312 0.796875 -4.65625 L 0.796875 -5.421875 C 0.796875 -5.515625 0.828125 -5.59375 0.890625 -5.65625 C 0.953125 -5.71875 1.03125 -5.75 1.125 -5.75 L 4.171875 -5.75 C 4.265625 -5.75 4.34375 -5.71875 4.40625 -5.65625 C 4.46875 -5.59375 4.5 -5.515625 4.5 -5.421875 L 4.5 -4.84375 C 4.5 -4.289062 4.640625 -3.84375 4.921875 -3.5 C 5.203125 -3.164062 5.554688 -3 5.984375 -3 C 6.410156 -3 6.765625 -3.160156 7.046875 -3.484375 C 7.335938 -3.804688 7.484375 -4.222656 7.484375 -4.734375 C 7.484375 -5.265625 7.300781 -5.71875 6.9375 -6.09375 C 6.582031 -6.476562 5.894531 -7.046875 4.875 -7.796875 C 3.976562 -8.429688 3.253906 -9 2.703125 -9.5 C 2.160156 -10 1.691406 -10.609375 1.296875 -11.328125 C 0.910156 -12.054688 0.71875 -12.898438 0.71875 -13.859375 C 0.71875 -15.367188 1.1875 -16.578125 2.125 -17.484375 C 3.0625 -18.390625 4.304688 -18.84375 5.859375 -18.84375 C 7.421875 -18.84375 8.675781 -18.367188 9.625 -17.421875 C 10.570312 -16.484375 11.046875 -15.253906 11.046875 -13.734375 L 11.046875 -13.09375 C 11.046875 -13 11.015625 -12.921875 10.953125 -12.859375 C 10.890625 -12.796875 10.8125 -12.765625 10.71875 -12.765625 L 7.65625 -12.765625 C 7.570312 -12.765625 7.5 -12.796875 7.4375 -12.859375 C 7.375 -12.921875 7.34375 -13 7.34375 -13.09375 L 7.34375 -13.8125 C 7.34375 -14.363281 7.203125 -14.800781 6.921875 -15.125 C 6.648438 -15.457031 6.296875 -15.625 5.859375 -15.625 C 5.429688 -15.625 5.082031 -15.46875 4.8125 -15.15625 C 4.550781 -14.84375 4.421875 -14.410156 4.421875 -13.859375 C 4.421875 -13.328125 4.585938 -12.859375 4.921875 -12.453125 C 5.253906 -12.046875 5.921875 -11.476562 6.921875 -10.75 C 8.015625 -9.9375 8.84375 -9.273438 9.40625 -8.765625 C 9.96875 -8.265625 10.398438 -7.707031 10.703125 -7.09375 C 11.015625 -6.476562 11.171875 -5.742188 11.171875 -4.890625 C 11.171875 -3.328125 10.691406 -2.082031 9.734375 -1.15625 C 8.773438 -0.238281 7.515625 0.21875 5.953125 0.21875 Z M 5.953125 0.21875 "/></g></g><g clip-rule="nonzero" clip-path="url(#d8f3cc568b)"><g clip-rule="nonzero" clip-path="url(#a7eb17e5aa)"><path style=" stroke:none;fill-rule:nonzero;fill:#f80302;fill-opacity:1;" d="M 146.425781 91.128906 L 234.816406 91.128906 L 234.816406 156.90625 L 146.425781 156.90625 Z M 146.425781 91.128906 "/></g></g><path style="fill:none;stroke-width:9;stroke-linecap:round;stroke-linejoin:miter;stroke:#f80302;stroke-opacity:1;stroke-miterlimit:4;" d="M 4.502359 4.498208 L 106.758081 4.498726 " transform="matrix(0.295945,0.687307,-0.687307,0.295945,136.243575,91.988336)"/><path style="fill:none;stroke-width:9;stroke-linecap:round;stroke-linejoin:miter;stroke:#f80302;stroke-opacity:1;stroke-miterlimit:4;" d="M 4.497902 4.502233 L 63.770205 4.502233 " transform="matrix(0.747082,0,0,0.747082,161.674856,164.394277)"/><path style="fill:none;stroke-width:9;stroke-linecap:round;stroke-linejoin:miter;stroke:#f80302;stroke-opacity:1;stroke-miterlimit:4;" d="M 4.501652 4.497679 L 30.454779 4.497679 " transform="matrix(0.75,0.000000000000005793,-0.000000000000005793,0.75,110.514386,91.509553)"/><g style="fill:#f2c624;fill-opacity:1;"><g transform="translate(175.817207, 140.206441)"><path style="stroke:none" d="M 22.109375 -9.6875 C 22.109375 -7.125 21.421875 -4.972656 20.046875 -3.234375 C 18.679688 -1.492188 16.859375 -0.378906 14.578125 0.109375 C 14.398438 0.171875 14.3125 0.273438 14.3125 0.421875 L 14.359375 3.375 C 14.359375 3.539062 14.296875 3.6875 14.171875 3.8125 C 14.054688 3.9375 13.910156 4 13.734375 4 L 9.46875 4 C 9.289062 4 9.140625 3.9375 9.015625 3.8125 C 8.898438 3.6875 8.84375 3.539062 8.84375 3.375 L 8.890625 0.3125 C 8.890625 0.175781 8.820312 0.0859375 8.6875 0.046875 C 6.507812 -0.515625 4.78125 -1.617188 3.5 -3.265625 C 2.21875 -4.910156 1.578125 -6.890625 1.578125 -9.203125 L 1.578125 -10.734375 C 1.578125 -10.910156 1.640625 -11.054688 1.765625 -11.171875 C 1.890625 -11.296875 2.035156 -11.359375 2.203125 -11.359375 L 8.265625 -11.359375 C 8.441406 -11.359375 8.585938 -11.296875 8.703125 -11.171875 C 8.828125 -11.054688 8.890625 -10.910156 8.890625 -10.734375 L 8.890625 -9.578125 C 8.890625 -8.492188 9.171875 -7.617188 9.734375 -6.953125 C 10.296875 -6.285156 11 -5.953125 11.84375 -5.953125 C 12.6875 -5.953125 13.382812 -6.265625 13.9375 -6.890625 C 14.5 -7.523438 14.78125 -8.351562 14.78125 -9.375 C 14.78125 -10.425781 14.429688 -11.328125 13.734375 -12.078125 C 13.035156 -12.828125 11.664062 -13.941406 9.625 -15.421875 C 7.875 -16.679688 6.453125 -17.800781 5.359375 -18.78125 C 4.273438 -19.769531 3.347656 -20.984375 2.578125 -22.421875 C 1.804688 -23.859375 1.421875 -25.523438 1.421875 -27.421875 C 1.421875 -29.867188 2.066406 -31.9375 3.359375 -33.625 C 4.660156 -35.3125 6.4375 -36.414062 8.6875 -36.9375 C 8.820312 -36.976562 8.890625 -37.085938 8.890625 -37.265625 L 8.84375 -40.671875 C 8.84375 -40.847656 8.898438 -41 9.015625 -41.125 C 9.140625 -41.25 9.289062 -41.3125 9.46875 -41.3125 L 13.6875 -41.3125 C 13.863281 -41.3125 14.007812 -41.25 14.125 -41.125 C 14.25 -41 14.3125 -40.847656 14.3125 -40.671875 L 14.265625 -37.265625 C 14.265625 -37.085938 14.332031 -36.976562 14.46875 -36.9375 C 16.75 -36.414062 18.546875 -35.273438 19.859375 -33.515625 C 21.179688 -31.765625 21.84375 -29.644531 21.84375 -27.15625 L 21.84375 -25.890625 C 21.84375 -25.710938 21.78125 -25.5625 21.65625 -25.4375 C 21.53125 -25.320312 21.378906 -25.265625 21.203125 -25.265625 L 15.15625 -25.265625 C 14.976562 -25.265625 14.828125 -25.320312 14.703125 -25.4375 C 14.585938 -25.5625 14.53125 -25.710938 14.53125 -25.890625 L 14.53125 -27.3125 C 14.53125 -28.394531 14.253906 -29.257812 13.703125 -29.90625 C 13.160156 -30.5625 12.453125 -30.890625 11.578125 -30.890625 C 10.734375 -30.890625 10.046875 -30.582031 9.515625 -29.96875 C 8.992188 -29.351562 8.734375 -28.503906 8.734375 -27.421875 C 8.734375 -26.367188 9.066406 -25.4375 9.734375 -24.625 C 10.398438 -23.820312 11.71875 -22.703125 13.6875 -21.265625 C 15.851562 -19.648438 17.488281 -18.34375 18.59375 -17.34375 C 19.707031 -16.34375 20.570312 -15.234375 21.1875 -14.015625 C 21.800781 -12.804688 22.109375 -11.363281 22.109375 -9.6875 Z M 22.109375 -9.6875 "/></g></g></g></svg>