<svg xmlns="http://www.w3.org/2000/svg" xmlns:xlink="http://www.w3.org/1999/xlink" width="500" zoomAndPan="magnify" viewBox="0 0 375 374.999991" height="500" preserveAspectRatio="xMidYMid meet" version="1.2"><defs><clipPath id="7905a053be"><path d="M 82.476562 148 L 306.726562 148 L 306.726562 230.785156 L 82.476562 230.785156 Z M 82.476562 148 "/></clipPath><clipPath id="1578b1de19"><path d="M 165 85.285156 L 224 85.285156 L 224 138 L 165 138 Z M 165 85.285156 "/></clipPath><clipPath id="f50f6ec7db"><path d="M 33.421875 211.789062 L 337.171875 211.789062 L 337.171875 250.789062 L 33.421875 250.789062 Z M 33.421875 211.789062 "/></clipPath></defs><g id="d692c1bb69"><rect x="0" width="375" y="0" height="374.999991" style="fill:#ffffff;fill-opacity:1;stroke:none;"/><rect x="0" width="375" y="0" height="374.999991" style="fill:#fdf5fa;fill-opacity:1;stroke:none;"/><g clip-rule="nonzero" clip-path="url(#7905a053be)"><path style=" stroke:none;fill-rule:nonzero;fill:#ef7bc2;fill-opacity:1;" d="M 281.9375 230.796875 L 107.269531 230.796875 C 93.710938 230.796875 82.6875 219.808594 82.6875 206.304688 C 82.6875 196.03125 89.199219 186.777344 98.894531 183.28125 L 194.828125 148.652344 C 195.457031 148.425781 196.148438 148.425781 196.773438 148.660156 L 290.476562 183.226562 C 300.070312 186.765625 306.519531 195.996094 306.519531 206.195312 L 306.519531 206.304688 C 306.519531 219.808594 295.492188 230.796875 281.9375 230.796875 Z M 195.78125 154.296875 L 100.820312 188.578125 C 93.355469 191.273438 88.34375 198.394531 88.34375 206.304688 C 88.34375 216.703125 96.832031 225.160156 107.269531 225.160156 L 281.9375 225.160156 C 292.375 225.160156 300.863281 216.703125 300.863281 206.304688 L 300.863281 206.195312 C 300.863281 198.34375 295.898438 191.238281 288.511719 188.511719 Z M 195.78125 154.296875 "/></g><g clip-rule="nonzero" clip-path="url(#1578b1de19)"><path style=" stroke:none;fill-rule:nonzero;fill:#ef7bc2;fill-opacity:1;" d="M 197.234375 137.992188 C 195.671875 137.992188 194.40625 136.730469 194.40625 135.175781 C 194.40625 133.621094 195.671875 132.359375 197.234375 132.359375 C 202.859375 132.359375 208.125 130.148438 212.058594 126.136719 C 215.988281 122.128906 218.078125 116.828125 217.949219 111.210938 C 217.824219 105.929688 215.667969 100.9375 211.878906 97.152344 C 208.09375 93.371094 203.085938 91.214844 197.785156 91.074219 C 188.550781 90.84375 180.429688 96.535156 177.546875 105.25 C 176.921875 107.144531 175.535156 108.734375 173.746094 109.613281 L 169.671875 111.617188 C 168.269531 112.304688 166.574219 111.730469 165.882812 110.335938 C 165.195312 108.9375 165.769531 107.25 167.171875 106.5625 L 171.246094 104.5625 C 171.6875 104.34375 172.019531 103.964844 172.175781 103.488281 C 173.910156 98.242188 177.355469 93.574219 181.878906 90.34375 C 186.578125 86.988281 192.125 85.292969 197.929688 85.445312 C 204.6875 85.625 211.0625 88.367188 215.882812 93.179688 C 220.695312 97.988281 223.4375 104.347656 223.601562 111.078125 C 223.769531 118.226562 221.109375 124.96875 216.105469 130.074219 C 211.105469 135.179688 204.398438 137.992188 197.234375 137.992188 Z M 197.234375 137.992188 "/></g><path style=" stroke:none;fill-rule:nonzero;fill:#ef7bc2;fill-opacity:1;" d="M 195.792969 154.113281 C 194.234375 154.113281 192.964844 152.851562 192.964844 151.296875 L 192.964844 135.175781 C 192.964844 133.621094 194.234375 132.359375 195.792969 132.359375 C 197.355469 132.359375 198.621094 133.621094 198.621094 135.175781 L 198.621094 151.296875 C 198.621094 152.855469 197.355469 154.113281 195.792969 154.113281 Z M 195.792969 154.113281 "/><g clip-rule="nonzero" clip-path="url(#f50f6ec7db)"><path style=" stroke:none;fill-rule:nonzero;fill:#ef7bc2;fill-opacity:1;" d="M 195.472656 216.136719 C 196.140625 215.953125 196.808594 215.589844 197.476562 215.589844 C 198.875 215.589844 200.210938 216.015625 201.609375 215.46875 C 202.035156 215.285156 202.644531 215.40625 203.128906 215.527344 C 205.5 216.195312 207.929688 216.074219 210.359375 216.074219 C 218.199219 216.074219 225.976562 216.195312 233.8125 216.136719 C 240.742188 216.136719 247.730469 216.015625 254.65625 215.953125 C 260.730469 215.894531 266.808594 215.894531 272.882812 215.832031 C 274.097656 215.832031 275.375 215.894531 276.53125 215.589844 C 278.777344 214.921875 281.027344 214.980469 283.214844 215.40625 C 287.222656 216.195312 291.171875 215.953125 295.183594 215.285156 C 296.824219 215.46875 298.527344 215.710938 300.289062 215.894531 C 301.808594 216.074219 303.386719 215.648438 304.964844 216.441406 C 304.117188 218.324219 302.109375 217.898438 300.347656 218.6875 C 308.308594 219.234375 315.722656 219.722656 323.257812 220.269531 C 324.105469 220.753906 324.957031 221.300781 325.867188 221.789062 C 330 222.699219 330 222.699219 332.066406 224.097656 C 329.695312 225.007812 327.207031 224.460938 324.773438 224.945312 C 324.53125 225.066406 324.167969 225.25 323.925781 225.371094 C 323.621094 225.554688 323.378906 225.738281 323.074219 225.917969 C 322.101562 225.554688 321.191406 225.191406 320.15625 224.886719 C 319.671875 224.765625 319.183594 224.945312 319.0625 225.613281 C 320.765625 227.195312 320.765625 227.195312 329.027344 229.078125 C 327.449219 230.597656 327.449219 230.597656 323.863281 231.082031 C 324.105469 231.207031 324.289062 231.328125 324.472656 231.328125 C 326.476562 231.8125 328.421875 232.601562 330.546875 232.601562 C 331.519531 232.601562 332.492188 233.148438 333.464844 233.515625 C 333.707031 233.574219 333.769531 234 333.949219 234.242188 C 332.675781 234.910156 331.15625 234.304688 329.941406 235.335938 C 331.035156 236.429688 332.492188 235.945312 333.769531 236.1875 C 334.921875 236.429688 336.136719 236.613281 337.171875 237.28125 C 336.746094 238.011719 335.894531 237.707031 335.105469 238.191406 C 334.863281 238.558594 334.496094 239.105469 334.011719 239.773438 C 329.332031 240.746094 324.410156 240.015625 319.367188 240.5 C 320.644531 241.351562 321.859375 240.988281 323.011719 241.046875 C 324.046875 241.109375 325.078125 241.046875 326.113281 241.171875 C 327.265625 241.292969 328.542969 240.925781 329.941406 241.71875 C 327.265625 241.839844 324.835938 242.019531 322.527344 242.140625 C 321.738281 242.75 321.007812 243.234375 320.097656 243.90625 C 318.457031 243.964844 316.511719 244.027344 314.628906 244.027344 C 309.765625 244.085938 304.90625 244.085938 300.046875 244.207031 C 299.011719 244.207031 297.980469 244.027344 297.066406 244.875 L 297.066406 246.882812 C 295.304688 247.976562 293.300781 247.308594 291.417969 247.734375 C 291.234375 248.339844 292.085938 248.339844 292.085938 248.886719 C 291.84375 248.949219 291.539062 249.128906 291.234375 249.128906 C 285.339844 249.191406 279.445312 249.3125 273.492188 249.3125 C 271.910156 249.3125 270.394531 249.070312 268.691406 248.949219 C 267.476562 248.523438 266.140625 248.097656 265.046875 247.671875 C 264.5 247.609375 264.132812 247.550781 263.769531 247.550781 C 252.46875 247.488281 241.226562 247.429688 229.925781 247.429688 C 219.65625 247.429688 209.449219 247.550781 199.179688 247.550781 C 197.660156 247.550781 196.082031 247.1875 194.320312 246.941406 C 193.226562 247.0625 191.828125 247.367188 190.429688 247.367188 C 186.785156 247.367188 183.136719 247.550781 179.554688 246.761719 C 179.066406 246.640625 178.519531 246.640625 177.972656 246.640625 C 172.566406 246.578125 167.21875 246.515625 161.8125 246.515625 C 161.507812 246.515625 161.203125 246.761719 160.839844 246.882812 C 161.082031 247.0625 161.324219 247.308594 161.566406 247.308594 C 163.632812 247.367188 165.699219 247.429688 167.828125 247.429688 C 169.710938 247.429688 171.65625 247.429688 173.539062 247.429688 C 174.085938 247.429688 174.632812 247.367188 175.117188 247.550781 C 178.824219 248.949219 182.652344 248.402344 186.480469 248.460938 C 191.828125 248.582031 197.234375 248.339844 202.582031 248.644531 C 202.824219 248.644531 203.128906 248.828125 203.371094 248.949219 C 203.007812 249.007812 202.703125 249.191406 202.339844 249.191406 C 191.585938 249.070312 180.828125 249.3125 170.074219 248.765625 C 167.644531 248.644531 165.273438 248.15625 162.84375 248.339844 C 160.230469 248.523438 157.617188 248.28125 155.003906 248.28125 C 152.574219 248.28125 150.144531 248.28125 147.714844 248.21875 C 145.285156 248.21875 142.851562 248.15625 140.421875 248.15625 C 131.917969 248.15625 123.410156 248.097656 114.902344 248.097656 C 113.566406 248.097656 112.230469 248.035156 110.953125 247.855469 C 121.527344 247.429688 132.097656 248.097656 142.671875 247.0625 C 142.730469 247.0625 142.851562 246.882812 142.914062 246.761719 C 142.792969 246.640625 142.609375 246.457031 142.488281 246.457031 C 125.839844 245.605469 109.128906 246.273438 92.480469 246.515625 C 85.371094 246.640625 78.261719 247.1875 70.730469 247.734375 C 73.039062 248.644531 74.980469 248.15625 76.867188 248.339844 C 78.929688 248.523438 81.058594 248.402344 83.125 248.523438 C 84.945312 248.644531 86.769531 248.339844 89.625 248.949219 C 84.277344 249.191406 79.902344 249.191406 75.589844 249.554688 C 71.277344 249.980469 66.960938 250.285156 62.585938 250.34375 C 59.609375 250.40625 56.691406 250.285156 53.777344 249.675781 C 52.257812 249.375 50.675781 249.3125 49.097656 249.128906 C 48.609375 249.070312 48.125 248.765625 47.515625 248.523438 C 47.699219 248.035156 47.699219 247.367188 48.003906 247.1875 C 49.035156 246.578125 50.128906 246.152344 51.527344 245.484375 C 49.765625 245.300781 48.1875 245.242188 46.726562 244.875 C 45.027344 244.511719 43.445312 243.84375 41.867188 243.359375 C 41.378906 242.8125 41.625 242.445312 42.109375 242.140625 C 42.472656 241.898438 42.839844 241.59375 43.507812 241.109375 C 40.105469 240.320312 36.457031 240.804688 33.421875 239.226562 L 33.421875 236.429688 C 33.542969 236.1875 33.601562 236.003906 33.722656 235.882812 C 34.816406 235.09375 35.910156 234.242188 36.824219 233.210938 C 37.25 232.785156 38.097656 232.722656 38.585938 232.542969 C 39.558594 231.875 39.375 230.902344 39.558594 230.113281 C 40.53125 229.320312 42.109375 229.867188 42.777344 228.53125 C 42.292969 226.464844 40.285156 225.980469 38.769531 224.945312 C 38.707031 224.644531 38.644531 224.277344 38.707031 223.972656 C 38.769531 223.671875 38.949219 223.367188 39.132812 223.003906 C 40.285156 222.152344 41.746094 222.335938 43.019531 221.847656 C 44.175781 221.421875 45.328125 220.996094 45.632812 220.875 C 48.734375 220.328125 50.921875 219.902344 53.109375 219.539062 C 54.503906 219.355469 55.84375 219.296875 57.238281 219.175781 C 60.339844 218.929688 63.496094 218.6875 66.597656 218.566406 C 69.878906 218.382812 73.21875 218.261719 76.5 218.140625 C 81.726562 217.960938 86.890625 217.714844 92.117188 217.535156 C 96.429688 217.414062 100.804688 217.289062 105.121094 217.230469 C 112.777344 217.109375 120.433594 217.167969 128.027344 216.867188 C 133.253906 216.683594 138.417969 217.109375 143.644531 216.5625 C 147.773438 217.046875 151.96875 216.804688 156.160156 216.867188 C 165.882812 216.988281 175.605469 217.109375 185.324219 217.230469 C 186.175781 217.230469 187.089844 217.230469 187.9375 217.351562 C 193.773438 218.382812 199.726562 218.019531 205.621094 218.203125 C 207.503906 218.261719 209.449219 218.082031 211.332031 218.566406 C 212 218.75 212.730469 218.6875 213.398438 218.6875 C 216.679688 218.566406 220.019531 218.382812 223.242188 218.992188 C 228.222656 218.6875 233.265625 219.722656 238.25 218.445312 C 239.039062 218.203125 239.953125 218.261719 240.921875 218.203125 C 240.742188 217.472656 240.253906 217.59375 239.953125 217.59375 C 237.519531 217.472656 235.089844 217.289062 232.660156 217.289062 C 222.207031 217.230469 211.816406 217.230469 201.367188 217.167969 C 199.789062 217.167969 198.269531 217.167969 196.75 217.167969 C 196.261719 216.742188 195.835938 216.441406 195.472656 216.074219 Z M 195.472656 216.136719 C 194.804688 215.894531 194.199219 215.527344 193.527344 215.46875 C 191.644531 215.347656 189.699219 215.285156 187.816406 215.226562 C 182.410156 215.101562 177.0625 215.042969 171.65625 214.921875 C 171.289062 214.921875 170.925781 214.679688 169.710938 214.3125 C 172.140625 214.132812 173.660156 213.949219 175.179688 213.949219 C 179.007812 213.886719 182.835938 213.707031 186.664062 213.886719 C 196.382812 214.253906 206.105469 214.007812 215.828125 214.132812 C 222.085938 214.191406 228.34375 214.253906 234.542969 214.253906 C 246.878906 214.3125 259.210938 214.3125 271.546875 214.3125 C 277.078125 214.3125 282.667969 214.132812 288.195312 214.132812 C 298.769531 214.070312 309.402344 214.007812 319.976562 213.886719 C 320.765625 213.886719 321.554688 213.828125 322.34375 213.765625 C 321.3125 213.402344 320.277344 213.339844 319.246094 213.339844 C 312.988281 213.28125 306.730469 213.339844 300.46875 213.28125 C 283.09375 213.097656 265.714844 213.039062 248.335938 213.160156 C 237.765625 213.21875 227.128906 213.28125 216.558594 213.28125 C 208.597656 213.28125 200.578125 213.160156 192.617188 213.039062 C 189.519531 212.976562 186.359375 213.21875 183.261719 212.492188 C 182.410156 212.308594 181.558594 212.367188 180.648438 212.367188 C 177.367188 212.308594 174.023438 212.1875 170.742188 212.1875 C 162.539062 211.945312 154.214844 211.882812 145.832031 211.820312 C 142.730469 211.820312 139.570312 211.820312 136.472656 211.820312 C 127.417969 211.882812 118.425781 211.945312 109.375 212.066406 C 104.328125 212.125 99.285156 212.003906 94.242188 212.429688 C 90.414062 212.734375 86.648438 212.855469 82.820312 212.976562 C 79.539062 213.039062 76.257812 213.097656 72.976562 213.097656 C 69.695312 213.160156 66.414062 213.460938 62.949219 214.617188 C 64.894531 214.921875 66.597656 215.042969 68.175781 214.679688 C 70.730469 214.070312 73.339844 214.191406 75.953125 214.070312 C 81.363281 213.949219 86.710938 213.828125 92.117188 213.707031 C 93.515625 213.644531 94.910156 213.644531 96.25 213.402344 C 98.132812 213.039062 100.015625 213.039062 101.960938 213.039062 C 116.179688 213.039062 130.457031 213.160156 144.675781 213.039062 C 150.570312 212.976562 156.464844 213.339844 162.359375 213.28125 C 162.539062 213.28125 162.660156 213.585938 163.027344 213.949219 C 160.050781 214.007812 157.253906 214.132812 154.519531 214.191406 C 151.722656 214.191406 148.992188 214.132812 146.195312 214.132812 C 143.398438 214.132812 140.664062 214.253906 137.871094 214.253906 C 135.074219 214.3125 132.28125 214.253906 129.546875 214.375 C 126.933594 214.496094 124.261719 214.007812 120.492188 214.800781 C 125.171875 214.859375 128.636719 214.859375 132.097656 214.859375 C 139.207031 214.921875 146.316406 214.921875 153.488281 215.042969 C 155.550781 215.101562 157.679688 214.921875 159.683594 215.527344 C 161.566406 216.136719 163.453125 216.195312 165.335938 216.195312 C 173.476562 216.195312 181.679688 216.195312 189.824219 216.136719 C 191.707031 216.136719 193.652344 216.015625 195.535156 215.953125 Z M 84.886719 215.894531 C 88.957031 215.832031 93.089844 215.773438 97.160156 215.710938 C 92.90625 215.46875 88.59375 215.46875 84.277344 215.46875 C 84.15625 215.46875 84.035156 215.648438 83.914062 215.710938 C 84.21875 215.773438 84.582031 215.894531 84.886719 215.894531 M 66.902344 216.378906 C 65.867188 216.378906 64.835938 216.320312 63.863281 216.378906 C 63.011719 216.441406 62.101562 216.257812 60.582031 216.988281 C 64.167969 216.925781 67.082031 217.109375 70 216.441406 C 68.90625 216.441406 67.871094 216.378906 66.902344 216.378906 "/></g><g style="fill:#ffffff;fill-opacity:1;"><g transform="translate(89.835774, 236.686084)"><path style="stroke:none" d="M 29.242188 -3.714844 C 26.476562 -3.714844 23.632812 -3.503906 20.714844 -3.089844 C 17.921875 -2.6875 15.242188 -2.128906 12.683594 -1.402344 L 8.3125 -0.160156 L 8.984375 -4.65625 C 9.324219 -6.921875 10.253906 -9.980469 11.773438 -13.832031 C 13.183594 -17.414062 14.945312 -21.285156 17.050781 -25.4375 C 19.195312 -29.667969 21.40625 -33.621094 23.6875 -37.292969 C 26.171875 -41.292969 28.480469 -44.535156 30.613281 -47.023438 L 30.6875 -47.109375 L 30.765625 -47.1875 C 30.402344 -46.824219 30.21875 -46.394531 30.21875 -45.898438 C 30.21875 -45.71875 30.246094 -45.5625 30.292969 -45.429688 L 30.285156 -45.429688 C 30.175781 -45.59375 30.011719 -45.765625 29.785156 -45.949219 C 29.53125 -46.15625 29.269531 -46.316406 28.996094 -46.433594 C 28.796875 -46.519531 28.644531 -46.5625 28.539062 -46.5625 C 28.632812 -46.5625 28.726562 -46.574219 28.8125 -46.605469 C 28.832031 -46.609375 28.84375 -46.617188 28.855469 -46.621094 C 28.839844 -46.613281 28.820312 -46.605469 28.796875 -46.589844 L 27.289062 -49.101562 L 28.945312 -46.683594 C 27.78125 -45.886719 26.042969 -43.851562 23.730469 -40.574219 C 21.371094 -37.230469 18.996094 -33.386719 16.601562 -29.046875 C 14.097656 -24.503906 12.085938 -20.332031 10.570312 -16.535156 C 8.972656 -12.523438 8.171875 -9.566406 8.171875 -7.664062 C 8.171875 -7.371094 8.304688 -7.027344 8.570312 -6.632812 C 8.886719 -6.160156 9.300781 -5.757812 9.808594 -5.429688 L 14.703125 -2.25 L 9.226562 -0.222656 C 7.273438 0.503906 5.703125 1.257812 4.519531 2.046875 L 2.894531 -0.390625 L 4.597656 1.996094 C 4.265625 2.230469 4.003906 2.5625 3.808594 2.988281 C 3.640625 3.355469 3.558594 3.691406 3.558594 3.988281 C 3.558594 3.90625 3.515625 3.78125 3.4375 3.613281 C 3.300781 3.328125 3.101562 3.078125 2.832031 2.863281 C 2.375 2.492188 1.847656 2.304688 1.25 2.304688 C 0.816406 2.304688 0.4375 2.410156 0.109375 2.617188 C 0.0351562 2.660156 -0.0234375 2.703125 -0.0703125 2.746094 L -0.0625 2.734375 L 2.1875 4.613281 L -0.167969 2.871094 C 0.296875 2.242188 1.035156 1.695312 2.054688 1.234375 C 2.707031 0.941406 3.523438 0.644531 4.511719 0.347656 C 6.292969 -0.183594 8.5 -0.691406 11.132812 -1.171875 C 13.734375 -1.648438 16.363281 -2.03125 19.019531 -2.316406 C 21.878906 -2.621094 24.402344 -2.777344 26.585938 -2.777344 C 28.652344 -2.777344 30.332031 -2.628906 31.632812 -2.332031 C 34.027344 -1.785156 35.410156 -0.640625 35.785156 1.105469 L 32.917969 1.71875 L 32.917969 -1.210938 C 32.339844 -1.210938 31.851562 -1.027344 31.457031 -0.660156 C 31.320312 -0.53125 31.230469 -0.417969 31.1875 -0.324219 C 31.273438 -0.515625 31.3125 -0.824219 31.3125 -1.25 C 31.3125 -2.894531 30.625 -3.714844 29.242188 -3.714844 Z M 29.242188 -9.578125 C 30.589844 -9.578125 31.808594 -9.3125 32.898438 -8.777344 C 33.933594 -8.269531 34.800781 -7.546875 35.5 -6.613281 C 36.617188 -5.117188 37.179688 -3.328125 37.179688 -1.25 C 37.179688 -0.0078125 36.972656 1.082031 36.5625 2.023438 C 36.28125 2.667969 35.910156 3.207031 35.453125 3.632812 C 34.722656 4.3125 33.878906 4.652344 32.917969 4.652344 L 30.546875 4.652344 L 30.050781 2.335938 C 30.125 2.679688 30.269531 2.980469 30.488281 3.238281 C 30.597656 3.367188 30.707031 3.464844 30.816406 3.527344 C 30.757812 3.496094 30.597656 3.449219 30.332031 3.386719 C 29.460938 3.1875 28.210938 3.089844 26.585938 3.089844 C 24.609375 3.089844 22.296875 3.230469 19.644531 3.515625 C 17.132812 3.785156 14.648438 4.144531 12.1875 4.59375 C 9.769531 5.039062 7.769531 5.496094 6.191406 5.96875 C 5.460938 6.1875 4.886719 6.390625 4.476562 6.574219 C 4.339844 6.636719 4.246094 6.6875 4.191406 6.722656 C 4.300781 6.648438 4.421875 6.527344 4.546875 6.355469 L 4.496094 6.425781 L 4.441406 6.488281 C 3.507812 7.609375 2.445312 8.171875 1.25 8.171875 C 0.464844 8.171875 -0.238281 7.921875 -0.855469 7.421875 C -1.277344 7.082031 -1.609375 6.65625 -1.851562 6.140625 C -2.15625 5.511719 -2.304688 4.792969 -2.304688 3.988281 C -2.304688 2.839844 -2.046875 1.695312 -1.523438 0.550781 C -0.894531 -0.824219 0.0078125 -1.933594 1.1875 -2.777344 L 1.265625 -2.832031 C 2.832031 -3.875 4.808594 -4.835938 7.191406 -5.722656 L 8.210938 -2.972656 L 6.613281 -0.511719 C 5.4375 -1.273438 4.472656 -2.222656 3.707031 -3.355469 C 2.773438 -4.738281 2.304688 -6.175781 2.304688 -7.664062 C 2.304688 -10.316406 3.246094 -14 5.125 -18.710938 C 6.730469 -22.730469 8.84375 -27.121094 11.46875 -31.878906 C 13.964844 -36.410156 16.457031 -40.433594 18.941406 -43.953125 C 21.65625 -47.808594 23.890625 -50.328125 25.632812 -51.523438 L 25.703125 -51.570312 L 25.777344 -51.617188 C 26.679688 -52.15625 27.597656 -52.425781 28.539062 -52.425781 C 29.445312 -52.425781 30.367188 -52.226562 31.304688 -51.824219 C 32.078125 -51.492188 32.804688 -51.050781 33.488281 -50.496094 C 34.171875 -49.941406 34.734375 -49.332031 35.171875 -48.671875 C 35.78125 -47.757812 36.082031 -46.832031 36.082031 -45.898438 C 36.082031 -44.773438 35.695312 -43.824219 34.914062 -43.042969 L 32.839844 -45.113281 L 35.066406 -43.207031 C 33.128906 -40.945312 30.996094 -37.945312 28.667969 -34.199219 C 26.476562 -30.671875 24.347656 -26.867188 22.28125 -22.785156 C 20.257812 -18.796875 18.574219 -15.09375 17.226562 -11.679688 C 15.871094 -8.246094 15.058594 -5.613281 14.785156 -3.789062 L 11.882812 -4.222656 L 11.085938 -7.042969 C 13.898438 -7.839844 16.832031 -8.457031 19.886719 -8.894531 C 23.078125 -9.351562 26.199219 -9.578125 29.242188 -9.578125 Z M 29.242188 -9.578125 "/></g></g><g style="fill:#ffffff;fill-opacity:1;"><g transform="translate(125.800944, 236.686084)"><path style="stroke:none" d="M 19.78125 -36.339844 C 20.59375 -38.089844 21.703125 -39.964844 23.109375 -41.972656 C 25.089844 -44.789062 26.992188 -46.753906 28.820312 -47.859375 L 29.101562 -48.027344 L 29.410156 -48.128906 C 29.027344 -48.003906 28.695312 -47.777344 28.414062 -47.457031 C 28 -46.984375 27.796875 -46.4375 27.796875 -45.816406 C 27.796875 -45.53125 27.84375 -45.285156 27.9375 -45.078125 L 27.929688 -45.070312 C 27.785156 -45.261719 27.570312 -45.464844 27.289062 -45.671875 C 26.5625 -46.214844 25.859375 -46.484375 25.175781 -46.484375 C 25.050781 -46.484375 24.847656 -46.371094 24.5625 -46.152344 C 24.09375 -45.785156 23.636719 -45.246094 23.183594 -44.535156 C 22.71875 -43.808594 22.351562 -43.035156 22.074219 -42.210938 C 21.824219 -41.46875 21.699219 -40.847656 21.699219 -40.34375 C 21.699219 -39.433594 21.917969 -38.730469 22.355469 -38.234375 C 22.472656 -38.105469 22.574219 -38.019531 22.667969 -37.972656 C 22.535156 -38.035156 22.332031 -38.050781 22.050781 -38.011719 L 22.441406 -35.105469 Z M 25.097656 -33.871094 L 24.421875 -32.414062 L 22.828125 -32.199219 C 21.929688 -32.082031 21.011719 -32.25 20.074219 -32.710938 C 19.296875 -33.09375 18.59375 -33.640625 17.96875 -34.34375 C 16.546875 -35.949219 15.832031 -37.949219 15.832031 -40.34375 C 15.832031 -41.488281 16.0625 -42.734375 16.515625 -44.085938 C 16.945312 -45.359375 17.519531 -46.558594 18.238281 -47.6875 C 19.050781 -48.960938 19.953125 -49.988281 20.949219 -50.769531 C 22.292969 -51.820312 23.703125 -52.347656 25.175781 -52.347656 C 27.152344 -52.347656 29.019531 -51.691406 30.785156 -50.382812 C 31.515625 -49.839844 32.121094 -49.25 32.605469 -48.613281 C 33.308594 -47.683594 33.660156 -46.753906 33.660156 -45.816406 C 33.660156 -44.96875 33.382812 -44.230469 32.828125 -43.59375 C 32.410156 -43.117188 31.890625 -42.777344 31.265625 -42.566406 L 30.335938 -45.347656 L 31.855469 -42.839844 C 30.730469 -42.160156 29.414062 -40.746094 27.910156 -38.601562 C 26.703125 -36.882812 25.765625 -35.304688 25.097656 -33.871094 Z M 9.695312 -1.054688 C 12.335938 -1.054688 17.328125 -6.851562 24.671875 -18.441406 C 25.222656 -19.3125 25.613281 -19.925781 25.84375 -20.28125 L 28.304688 -18.6875 L 25.371094 -18.6875 C 25.371094 -18.410156 25.433594 -18.167969 25.554688 -17.964844 C 25.589844 -17.90625 25.617188 -17.871094 25.636719 -17.851562 C 25.625 -17.863281 25.621094 -17.867188 25.617188 -17.867188 C 25.738281 -17.8125 25.90625 -17.789062 26.113281 -17.789062 L 26.113281 -20.71875 L 28.546875 -19.085938 C 24.769531 -13.460938 21.851562 -9.4375 19.796875 -7.015625 C 18.457031 -5.433594 17.246094 -4.226562 16.171875 -3.398438 C 14.6875 -2.253906 13.257812 -1.679688 11.882812 -1.679688 C 11.125 -1.679688 10.429688 -1.867188 9.796875 -2.238281 C 9.199219 -2.589844 8.714844 -3.074219 8.347656 -3.691406 C 7.863281 -4.503906 7.625 -5.488281 7.625 -6.644531 C 7.625 -8.230469 8.042969 -10.28125 8.882812 -12.796875 C 9.59375 -14.933594 10.527344 -17.191406 11.679688 -19.574219 C 12.804688 -21.902344 13.9375 -23.921875 15.070312 -25.636719 C 16.464844 -27.742188 17.726562 -29.097656 18.855469 -29.710938 L 20.25 -27.132812 L 18.492188 -29.476562 C 18.246094 -29.292969 18.046875 -29.039062 17.902344 -28.722656 C 17.773438 -28.445312 17.710938 -28.175781 17.710938 -27.914062 C 17.710938 -27.78125 17.726562 -27.664062 17.761719 -27.566406 L 17.753906 -27.566406 C 17.652344 -27.71875 17.488281 -27.875 17.261719 -28.042969 C 16.636719 -28.503906 15.964844 -28.734375 15.246094 -28.734375 C 15.578125 -28.734375 15.847656 -28.792969 16.058594 -28.910156 C 16.019531 -28.890625 15.941406 -28.828125 15.828125 -28.722656 C 15.425781 -28.355469 14.941406 -27.785156 14.371094 -27.015625 C 13.105469 -25.308594 11.78125 -23.121094 10.402344 -20.457031 C 8.964844 -17.671875 7.800781 -15.007812 6.910156 -12.460938 C 5.976562 -9.789062 5.511719 -7.722656 5.511719 -6.253906 C 5.511719 -4.769531 6.050781 -3.492188 7.125 -2.414062 C 7.582031 -1.960938 8.078125 -1.605469 8.609375 -1.355469 C 9.035156 -1.15625 9.394531 -1.054688 9.695312 -1.054688 Z M 9.695312 4.808594 C 8.523438 4.808594 7.328125 4.523438 6.117188 3.953125 C 4.964844 3.410156 3.917969 2.671875 2.980469 1.730469 C 1.96875 0.71875 1.175781 -0.429688 0.605469 -1.714844 C -0.03125 -3.152344 -0.351562 -4.667969 -0.351562 -6.253906 C -0.351562 -8.382812 0.222656 -11.09375 1.375 -14.390625 C 2.355469 -17.199219 3.628906 -20.121094 5.195312 -23.152344 C 9.140625 -30.78125 12.492188 -34.597656 15.246094 -34.597656 C 17.246094 -34.597656 19.078125 -33.988281 20.738281 -32.769531 C 21.519531 -32.191406 22.152344 -31.542969 22.632812 -30.820312 C 23.261719 -29.878906 23.574219 -28.910156 23.574219 -27.914062 C 23.574219 -26.609375 23.050781 -25.566406 22.011719 -24.785156 L 21.835938 -24.65625 L 21.644531 -24.550781 C 21.675781 -24.566406 21.695312 -24.578125 21.703125 -24.585938 C 21.683594 -24.570312 21.65625 -24.546875 21.621094 -24.515625 C 21.503906 -24.414062 21.371094 -24.273438 21.214844 -24.097656 C 20.84375 -23.667969 20.425781 -23.105469 19.960938 -22.398438 C 18.972656 -20.90625 17.96875 -19.113281 16.957031 -17.019531 C 15.914062 -14.867188 15.078125 -12.839844 14.445312 -10.941406 C 13.808594 -9.027344 13.488281 -7.597656 13.488281 -6.644531 C 13.488281 -6.546875 13.492188 -6.476562 13.5 -6.433594 C 13.488281 -6.5 13.449219 -6.585938 13.386719 -6.6875 C 13.242188 -6.933594 13.035156 -7.136719 12.765625 -7.292969 C 12.480469 -7.460938 12.1875 -7.546875 11.882812 -7.546875 C 11.832031 -7.546875 11.789062 -7.542969 11.757812 -7.535156 C 11.777344 -7.539062 11.808594 -7.550781 11.851562 -7.570312 C 12.050781 -7.660156 12.300781 -7.816406 12.59375 -8.042969 C 13.339844 -8.621094 14.25 -9.542969 15.328125 -10.8125 C 17.238281 -13.0625 20.023438 -16.910156 23.679688 -22.355469 L 24.550781 -23.652344 L 26.113281 -23.652344 C 27.253906 -23.652344 28.339844 -23.226562 29.371094 -22.375 C 29.871094 -21.960938 30.277344 -21.492188 30.589844 -20.96875 C 31.019531 -20.246094 31.234375 -19.484375 31.234375 -18.6875 L 31.234375 -17.820312 L 30.765625 -17.09375 C 30.546875 -16.757812 30.167969 -16.160156 29.625 -15.304688 C 28.113281 -12.914062 26.882812 -11.023438 25.941406 -9.628906 C 24.277344 -7.164062 22.722656 -5.046875 21.285156 -3.277344 C 19.40625 -0.960938 17.65625 0.839844 16.039062 2.128906 C 13.796875 3.914062 11.683594 4.808594 9.695312 4.808594 Z M 9.695312 4.808594 "/></g></g><g style="fill:#ffffff;fill-opacity:1;"><g transform="translate(143.705343, 236.686084)"><path style="stroke:none" d="M 12.667969 -0.351562 C 15.679688 -0.351562 19.046875 -1.820312 22.761719 -4.753906 C 27.070312 -8.15625 31.601562 -13.351562 36.359375 -20.335938 L 38.78125 -18.6875 L 35.847656 -18.6875 C 35.847656 -18.410156 35.910156 -18.167969 36.03125 -17.964844 C 36.066406 -17.90625 36.09375 -17.871094 36.113281 -17.851562 C 36.101562 -17.863281 36.097656 -17.867188 36.097656 -17.867188 C 36.21875 -17.8125 36.382812 -17.789062 36.59375 -17.789062 L 36.59375 -20.71875 L 39.027344 -19.089844 C 35.324219 -13.554688 31.144531 -9.015625 26.480469 -5.472656 C 24.289062 -3.808594 22.160156 -2.515625 20.101562 -1.601562 C 17.875 -0.613281 15.835938 -0.117188 13.996094 -0.117188 C 11.777344 -0.117188 10.058594 -0.875 8.839844 -2.394531 C 7.820312 -3.65625 7.3125 -5.308594 7.3125 -7.351562 C 7.3125 -9.527344 7.890625 -12.109375 9.054688 -15.097656 C 10.089844 -17.753906 11.433594 -20.386719 13.09375 -22.996094 C 14.792969 -25.667969 16.519531 -27.84375 18.277344 -29.523438 C 20.558594 -31.707031 22.703125 -32.800781 24.707031 -32.800781 C 26.035156 -32.800781 27.101562 -32.324219 27.902344 -31.371094 C 28.5625 -30.585938 28.890625 -29.617188 28.890625 -28.460938 C 28.890625 -26.621094 28.085938 -24.273438 26.480469 -21.429688 C 25.035156 -18.875 23.484375 -16.792969 21.824219 -15.175781 L 19.78125 -17.28125 L 21.855469 -19.351562 C 21.960938 -19.246094 22.050781 -19.195312 22.128906 -19.195312 C 22.476562 -19.195312 22.945312 -19.394531 23.527344 -19.796875 C 24.273438 -20.3125 25.003906 -21.03125 25.714844 -21.957031 C 26.433594 -22.898438 27.007812 -23.878906 27.433594 -24.90625 C 27.832031 -25.867188 28.03125 -26.683594 28.03125 -27.367188 C 28.03125 -27.6875 27.933594 -28.070312 27.742188 -28.523438 C 27.503906 -29.074219 27.175781 -29.578125 26.753906 -30.042969 C 25.789062 -31.097656 24.636719 -31.628906 23.300781 -31.628906 C 21.730469 -31.628906 19.917969 -30.855469 17.855469 -29.316406 C 15.746094 -27.738281 13.695312 -25.585938 11.699219 -22.859375 C 9.761719 -20.207031 8.199219 -17.464844 7.019531 -14.628906 C 5.859375 -11.847656 5.277344 -9.5 5.277344 -7.585938 C 5.277344 -5.4375 5.988281 -3.691406 7.414062 -2.34375 C 8.8125 -1.015625 10.5625 -0.351562 12.667969 -0.351562 Z M 12.667969 5.511719 C 10.902344 5.511719 9.21875 5.203125 7.621094 4.585938 C 6.015625 3.964844 4.601562 3.074219 3.378906 1.914062 C 2.121094 0.71875 1.148438 -0.675781 0.46875 -2.273438 C -0.234375 -3.925781 -0.585938 -5.695312 -0.585938 -7.585938 C -0.585938 -10.28125 0.144531 -13.382812 1.605469 -16.886719 C 2.964844 -20.148438 4.753906 -23.292969 6.96875 -26.320312 C 9.308594 -29.519531 11.765625 -32.082031 14.34375 -34.011719 C 17.445312 -36.332031 20.429688 -37.492188 23.300781 -37.492188 C 24.878906 -37.492188 26.375 -37.152344 27.785156 -36.472656 C 29.023438 -35.871094 30.125 -35.046875 31.085938 -33.992188 C 31.953125 -33.042969 32.632812 -31.988281 33.128906 -30.832031 C 33.640625 -29.644531 33.894531 -28.488281 33.894531 -27.367188 C 33.894531 -25.90625 33.546875 -24.339844 32.851562 -22.660156 C 32.226562 -21.160156 31.398438 -19.734375 30.367188 -18.386719 C 29.28125 -16.972656 28.109375 -15.832031 26.851562 -14.96875 C 25.269531 -13.875 23.691406 -13.332031 22.128906 -13.332031 C 20.429688 -13.332031 18.957031 -13.957031 17.707031 -15.207031 L 15.605469 -17.308594 L 17.738281 -19.382812 C 18.996094 -20.605469 20.207031 -22.246094 21.371094 -24.3125 C 21.917969 -25.28125 22.34375 -26.164062 22.640625 -26.96875 C 22.898438 -27.65625 23.027344 -28.152344 23.027344 -28.460938 C 23.027344 -28.191406 23.15625 -27.90625 23.410156 -27.601562 C 23.617188 -27.355469 23.863281 -27.175781 24.152344 -27.058594 C 24.347656 -26.976562 24.535156 -26.9375 24.707031 -26.9375 C 24.609375 -26.9375 24.402344 -26.84375 24.082031 -26.664062 C 23.5625 -26.367188 22.980469 -25.90625 22.328125 -25.285156 C 20.914062 -23.933594 19.488281 -22.121094 18.042969 -19.851562 C 16.589844 -17.5625 15.414062 -15.269531 14.519531 -12.972656 C 13.625 -10.667969 13.175781 -8.792969 13.175781 -7.351562 C 13.175781 -6.6875 13.25 -6.261719 13.40625 -6.070312 C 13.40625 -6.070312 13.414062 -6.066406 13.429688 -6.058594 C 13.550781 -6.007812 13.742188 -5.980469 13.996094 -5.980469 C 15.007812 -5.980469 16.25 -6.308594 17.722656 -6.960938 C 19.363281 -7.691406 21.101562 -8.753906 22.933594 -10.144531 C 27.074219 -13.289062 30.816406 -17.359375 34.15625 -22.351562 L 35.027344 -23.652344 L 36.59375 -23.652344 C 37.730469 -23.652344 38.816406 -23.226562 39.847656 -22.375 C 40.347656 -21.960938 40.757812 -21.492188 41.066406 -20.96875 C 41.5 -20.246094 41.714844 -19.484375 41.714844 -18.6875 L 41.714844 -17.785156 L 41.207031 -17.039062 C 36.113281 -9.554688 31.175781 -3.925781 26.398438 -0.152344 C 21.617188 3.625 17.039062 5.511719 12.667969 5.511719 Z M 12.667969 5.511719 "/></g></g><g style="fill:#ffffff;fill-opacity:1;"><g transform="translate(172.086552, 236.686084)"><path style="stroke:none" d="M 39.019531 -19.078125 C 35.265625 -13.523438 30.976562 -8.984375 26.152344 -5.46875 C 23.957031 -3.867188 21.828125 -2.628906 19.765625 -1.75 C 17.578125 -0.816406 15.605469 -0.351562 13.839844 -0.351562 C 11.726562 -0.351562 10.058594 -1.042969 8.835938 -2.425781 C 7.765625 -3.636719 7.230469 -5.175781 7.230469 -7.035156 L 7.230469 -9.46875 L 9.34375 -10.085938 C 11.339844 -10.667969 13.46875 -11.699219 15.730469 -13.179688 C 17.921875 -14.613281 19.972656 -16.292969 21.886719 -18.214844 C 23.761719 -20.101562 25.238281 -21.949219 26.3125 -23.761719 C 27.300781 -25.433594 27.796875 -26.792969 27.796875 -27.835938 C 27.796875 -28.769531 27.390625 -29.621094 26.582031 -30.386719 C 25.710938 -31.214844 24.695312 -31.628906 23.535156 -31.628906 C 21.984375 -31.628906 20.171875 -30.84375 18.09375 -29.28125 C 15.957031 -27.675781 13.875 -25.492188 11.84375 -22.726562 C 9.863281 -20.03125 8.269531 -17.253906 7.0625 -14.386719 C 5.871094 -11.566406 5.277344 -9.195312 5.277344 -7.273438 C 5.277344 -5.273438 5.957031 -3.621094 7.3125 -2.316406 C 8.671875 -1.007812 10.378906 -0.351562 12.433594 -0.351562 C 15.546875 -0.351562 18.921875 -1.75 22.558594 -4.542969 C 26.929688 -7.902344 31.527344 -13.160156 36.347656 -20.324219 L 38.78125 -18.6875 L 35.847656 -18.6875 C 35.847656 -18.410156 35.910156 -18.167969 36.03125 -17.964844 C 36.066406 -17.90625 36.09375 -17.871094 36.113281 -17.851562 C 36.101562 -17.863281 36.097656 -17.867188 36.097656 -17.867188 C 36.21875 -17.8125 36.382812 -17.789062 36.59375 -17.789062 L 36.59375 -20.71875 Z M 34.164062 -22.363281 L 35.035156 -23.652344 L 36.59375 -23.652344 C 37.730469 -23.652344 38.816406 -23.226562 39.847656 -22.375 C 40.347656 -21.960938 40.757812 -21.492188 41.066406 -20.96875 C 41.5 -20.246094 41.714844 -19.484375 41.714844 -18.6875 L 41.714844 -17.792969 L 41.214844 -17.050781 C 31.085938 -2.007812 21.492188 5.511719 12.433594 5.511719 C 10.667969 5.511719 8.992188 5.199219 7.402344 4.570312 C 5.828125 3.949219 4.445312 3.0625 3.246094 1.90625 C 2.027344 0.738281 1.089844 -0.625 0.429688 -2.179688 C -0.246094 -3.777344 -0.585938 -5.472656 -0.585938 -7.273438 C -0.585938 -9.988281 0.160156 -13.117188 1.65625 -16.664062 C 3.042969 -19.957031 4.863281 -23.132812 7.117188 -26.199219 C 9.488281 -29.425781 11.972656 -32.015625 14.570312 -33.96875 C 17.691406 -36.316406 20.679688 -37.492188 23.535156 -37.492188 C 24.878906 -37.492188 26.175781 -37.230469 27.429688 -36.710938 C 28.617188 -36.21875 29.679688 -35.53125 30.613281 -34.644531 C 31.550781 -33.753906 32.285156 -32.742188 32.8125 -31.605469 C 33.378906 -30.386719 33.660156 -29.132812 33.660156 -27.835938 C 33.660156 -25.722656 32.890625 -23.367188 31.359375 -20.773438 C 30.035156 -18.542969 28.265625 -16.308594 26.042969 -14.078125 C 23.839844 -11.863281 21.472656 -9.929688 18.941406 -8.273438 C 16.191406 -6.472656 13.539062 -5.203125 10.984375 -4.457031 L 10.164062 -7.273438 L 13.097656 -7.273438 L 13.097656 -7.035156 C 13.097656 -6.652344 13.140625 -6.414062 13.230469 -6.3125 C 13.230469 -6.308594 13.246094 -6.304688 13.269531 -6.292969 C 13.398438 -6.242188 13.589844 -6.214844 13.839844 -6.214844 C 14.804688 -6.214844 16.011719 -6.523438 17.464844 -7.144531 C 19.117188 -7.847656 20.863281 -8.871094 22.695312 -10.207031 C 26.96875 -13.320312 30.789062 -17.371094 34.164062 -22.363281 Z M 25.019531 -32.175781 C 26.316406 -32.175781 27.359375 -31.757812 28.15625 -30.925781 C 28.90625 -30.140625 29.28125 -29.136719 29.28125 -27.914062 C 29.28125 -26.433594 28.644531 -24.632812 27.367188 -22.511719 C 26.316406 -20.761719 24.949219 -18.949219 23.265625 -17.070312 C 21.539062 -15.144531 19.75 -13.457031 17.902344 -12.003906 C 15.773438 -10.335938 13.789062 -9.167969 11.941406 -8.5 L 6.425781 -6.507812 L 8.144531 -12.117188 C 8.773438 -14.183594 9.714844 -16.375 10.957031 -18.691406 C 12.148438 -20.90625 13.480469 -22.976562 14.949219 -24.902344 C 18.644531 -29.75 22 -32.175781 25.019531 -32.175781 Z M 25.019531 -26.308594 C 24.953125 -26.308594 24.804688 -26.253906 24.578125 -26.144531 C 24.179688 -25.953125 23.730469 -25.652344 23.222656 -25.238281 C 22.085938 -24.3125 20.882812 -23.015625 19.609375 -21.347656 C 18.332031 -19.667969 17.167969 -17.855469 16.125 -15.914062 C 15.0625 -13.9375 14.269531 -12.097656 13.75 -10.402344 L 10.945312 -11.257812 L 9.949219 -14.015625 C 11.203125 -14.46875 12.648438 -15.335938 14.28125 -16.617188 C 15.859375 -17.859375 17.398438 -19.316406 18.898438 -20.984375 C 20.332031 -22.585938 21.480469 -24.105469 22.34375 -25.535156 C 22.734375 -26.1875 23.027344 -26.761719 23.222656 -27.257812 C 23.351562 -27.59375 23.417969 -27.8125 23.417969 -27.914062 C 23.417969 -27.835938 23.4375 -27.734375 23.472656 -27.613281 C 23.558594 -27.339844 23.707031 -27.09375 23.917969 -26.875 C 24.140625 -26.640625 24.394531 -26.476562 24.679688 -26.378906 C 24.816406 -26.332031 24.929688 -26.308594 25.019531 -26.308594 Z M 25.019531 -26.308594 "/></g></g><g style="fill:#ffffff;fill-opacity:1;"><g transform="translate(200.467766, 236.686084)"><path style="stroke:none" d="M 38.730469 -19.113281 C 37.828125 -17.734375 36.710938 -16.160156 35.371094 -14.390625 C 33.773438 -12.269531 32.210938 -10.339844 30.683594 -8.601562 C 28.789062 -6.445312 27.09375 -4.746094 25.589844 -3.503906 C 23.421875 -1.714844 21.511719 -0.820312 19.859375 -0.820312 C 18.675781 -0.820312 17.707031 -1.21875 16.957031 -2.011719 C 16.257812 -2.75 15.910156 -3.667969 15.910156 -4.769531 C 15.910156 -5.890625 16.363281 -7.421875 17.273438 -9.371094 C 17.734375 -10.363281 18.585938 -12.007812 19.824219 -14.300781 C 21.28125 -17.003906 22.285156 -18.96875 22.835938 -20.191406 C 23.640625 -21.976562 24.042969 -23.21875 24.042969 -23.925781 C 24.042969 -24.214844 23.832031 -24.523438 23.414062 -24.847656 C 22.925781 -25.226562 21.980469 -25.714844 20.578125 -26.316406 C 19.542969 -26.757812 18.8125 -27.113281 18.378906 -27.378906 C 16.941406 -28.257812 16.222656 -29.402344 16.222656 -30.804688 C 16.222656 -31.878906 16.757812 -33.070312 17.828125 -34.386719 C 18.503906 -35.214844 19.402344 -36.148438 20.53125 -37.1875 L 22.519531 -35.027344 L 20.03125 -36.582031 C 19.726562 -36.09375 19.621094 -35.582031 19.71875 -35.042969 C 19.753906 -34.847656 19.804688 -34.703125 19.867188 -34.601562 C 19.769531 -34.757812 19.554688 -34.964844 19.222656 -35.226562 C 18.828125 -35.535156 18.421875 -35.789062 18.003906 -35.988281 C 17.835938 -36.066406 17.695312 -36.125 17.578125 -36.15625 C 17.550781 -36.164062 17.53125 -36.171875 17.523438 -36.171875 C 17.5625 -36.164062 17.613281 -36.160156 17.671875 -36.160156 C 17.746094 -36.160156 17.796875 -36.167969 17.820312 -36.175781 C 17.753906 -36.152344 17.667969 -36.101562 17.566406 -36.03125 C 17.234375 -35.804688 16.902344 -35.472656 16.570312 -35.039062 C 16.210938 -34.566406 15.929688 -34.070312 15.71875 -33.550781 C 15.535156 -33.089844 15.441406 -32.695312 15.441406 -32.371094 C 15.441406 -32.203125 15.507812 -32.035156 15.636719 -31.863281 L 16.644531 -30.519531 L 16 -28.976562 C 14.824219 -26.160156 13.054688 -22.886719 10.6875 -19.148438 L 8.210938 -20.71875 L 11.140625 -20.71875 C 11.140625 -20.980469 11.089844 -21.203125 10.984375 -21.394531 C 10.953125 -21.453125 10.921875 -21.492188 10.898438 -21.515625 C 10.820312 -21.585938 10.652344 -21.617188 10.398438 -21.617188 L 10.398438 -18.6875 L 7.902344 -20.226562 C 9.929688 -23.511719 11.820312 -26.648438 13.578125 -29.632812 L 14.996094 -32.039062 L 17.46875 -30.746094 C 18.730469 -30.082031 19.660156 -29.496094 20.25 -28.984375 C 21.578125 -27.828125 22.246094 -26.453125 22.246094 -24.863281 C 22.246094 -23.660156 21.796875 -22.191406 20.902344 -20.464844 C 20.453125 -19.59375 19.625 -18.191406 18.417969 -16.253906 C 16.78125 -13.628906 15.644531 -11.65625 15.015625 -10.332031 C 14.046875 -8.308594 13.566406 -6.636719 13.566406 -5.316406 C 13.566406 -3.925781 14.015625 -2.730469 14.921875 -1.730469 C 15.703125 -0.863281 16.542969 -0.429688 17.4375 -0.429688 C 18.167969 -0.429688 19.089844 -0.785156 20.207031 -1.492188 C 21.523438 -2.328125 23.007812 -3.609375 24.660156 -5.339844 C 27.808594 -8.636719 31.597656 -13.625 36.023438 -20.304688 L 38.46875 -18.6875 L 35.535156 -18.6875 C 35.535156 -18.410156 35.597656 -18.167969 35.71875 -17.964844 C 35.753906 -17.90625 35.78125 -17.871094 35.800781 -17.851562 C 35.789062 -17.863281 35.785156 -17.867188 35.785156 -17.867188 C 35.90625 -17.8125 36.070312 -17.789062 36.28125 -17.789062 L 36.28125 -20.71875 Z M 33.828125 -22.328125 L 34.695312 -23.652344 L 36.28125 -23.652344 C 37.417969 -23.652344 38.503906 -23.226562 39.535156 -22.375 C 40.035156 -21.960938 40.441406 -21.492188 40.753906 -20.96875 C 41.1875 -20.246094 41.402344 -19.484375 41.402344 -18.6875 L 41.402344 -17.804688 L 40.914062 -17.066406 C 36.296875 -10.097656 32.289062 -4.839844 28.898438 -1.289062 C 26.921875 0.785156 25.070312 2.367188 23.347656 3.460938 C 21.273438 4.777344 19.304688 5.433594 17.4375 5.433594 C 16.132812 5.433594 14.867188 5.132812 13.632812 4.53125 C 12.484375 3.96875 11.464844 3.191406 10.566406 2.199219 C 9.671875 1.207031 8.980469 0.0820312 8.484375 -1.175781 C 7.960938 -2.5 7.703125 -3.882812 7.703125 -5.316406 C 7.703125 -7.523438 8.375 -10.039062 9.722656 -12.859375 C 10.449219 -14.378906 11.6875 -16.546875 13.441406 -19.359375 C 15.402344 -22.5 16.378906 -24.335938 16.378906 -24.863281 C 16.378906 -24.734375 16.410156 -24.617188 16.472656 -24.503906 C 16.484375 -24.484375 16.492188 -24.46875 16.496094 -24.464844 C 16.476562 -24.488281 16.445312 -24.519531 16.402344 -24.554688 C 16.15625 -24.769531 15.605469 -25.101562 14.746094 -25.550781 L 16.105469 -28.148438 L 18.632812 -26.660156 C 16.855469 -23.636719 14.941406 -20.46875 12.894531 -17.148438 L 12.035156 -15.753906 L 10.398438 -15.753906 C 9.171875 -15.753906 8.039062 -16.210938 7.007812 -17.128906 C 6.53125 -17.550781 6.148438 -18.023438 5.855469 -18.554688 C 5.46875 -19.246094 5.277344 -19.96875 5.277344 -20.71875 L 5.277344 -21.570312 L 5.734375 -22.289062 C 7.925781 -25.746094 9.542969 -28.722656 10.585938 -31.230469 L 13.292969 -30.101562 L 10.945312 -28.34375 C 10.035156 -29.558594 9.578125 -30.902344 9.578125 -32.371094 C 9.578125 -33.449219 9.808594 -34.570312 10.277344 -35.730469 C 10.683594 -36.746094 11.226562 -37.699219 11.910156 -38.59375 C 12.621094 -39.53125 13.402344 -40.289062 14.25 -40.867188 C 15.375 -41.640625 16.515625 -42.027344 17.671875 -42.027344 C 18.53125 -42.027344 19.480469 -41.777344 20.523438 -41.28125 C 21.332031 -40.898438 22.105469 -40.414062 22.84375 -39.835938 C 23.691406 -39.167969 24.34375 -38.484375 24.796875 -37.78125 C 25.15625 -37.222656 25.386719 -36.65625 25.492188 -36.082031 C 25.660156 -35.136719 25.5 -34.265625 25.003906 -33.472656 L 24.792969 -33.136719 L 24.503906 -32.871094 C 23.582031 -32.023438 22.875 -31.296875 22.378906 -30.6875 C 22.179688 -30.441406 22.042969 -30.253906 21.96875 -30.117188 L 21.960938 -30.105469 C 21.972656 -30.125 21.984375 -30.152344 21.992188 -30.1875 C 22.058594 -30.371094 22.089844 -30.578125 22.089844 -30.804688 C 22.089844 -31.359375 21.921875 -31.832031 21.589844 -32.222656 C 21.53125 -32.292969 21.472656 -32.351562 21.417969 -32.394531 C 21.410156 -32.398438 21.410156 -32.398438 21.40625 -32.402344 C 21.417969 -32.394531 21.429688 -32.386719 21.445312 -32.375 C 21.632812 -32.261719 22.117188 -32.035156 22.886719 -31.707031 C 23.730469 -31.34375 24.378906 -31.050781 24.832031 -30.824219 C 25.675781 -30.398438 26.402344 -29.953125 27.003906 -29.484375 C 28.9375 -27.988281 29.90625 -26.132812 29.90625 -23.925781 C 29.90625 -22.378906 29.332031 -20.332031 28.183594 -17.78125 C 27.574219 -16.429688 26.507812 -14.34375 24.984375 -11.519531 C 22.84375 -7.554688 21.777344 -5.304688 21.777344 -4.769531 C 21.777344 -5.222656 21.589844 -5.648438 21.21875 -6.039062 C 20.8125 -6.46875 20.359375 -6.683594 19.859375 -6.683594 C 19.816406 -6.683594 19.785156 -6.683594 19.757812 -6.679688 C 19.765625 -6.679688 19.777344 -6.683594 19.800781 -6.691406 C 19.914062 -6.726562 20.054688 -6.789062 20.226562 -6.882812 C 20.683594 -7.125 21.226562 -7.507812 21.855469 -8.027344 C 23.117188 -9.070312 24.589844 -10.550781 26.277344 -12.46875 C 27.707031 -14.101562 29.179688 -15.917969 30.691406 -17.921875 C 31.949219 -19.589844 32.996094 -21.058594 33.828125 -22.328125 Z M 33.828125 -22.328125 "/></g></g><g style="fill:#ffffff;fill-opacity:1;"><g transform="translate(228.536223, 236.686084)"><path style="stroke:none" d="M 19.78125 -36.339844 C 20.59375 -38.089844 21.703125 -39.964844 23.109375 -41.972656 C 25.089844 -44.789062 26.992188 -46.753906 28.820312 -47.859375 L 29.101562 -48.027344 L 29.410156 -48.128906 C 29.027344 -48.003906 28.695312 -47.777344 28.414062 -47.457031 C 28 -46.984375 27.796875 -46.4375 27.796875 -45.816406 C 27.796875 -45.53125 27.84375 -45.285156 27.9375 -45.078125 L 27.929688 -45.070312 C 27.785156 -45.261719 27.570312 -45.464844 27.289062 -45.671875 C 26.5625 -46.214844 25.859375 -46.484375 25.175781 -46.484375 C 25.050781 -46.484375 24.847656 -46.371094 24.5625 -46.152344 C 24.09375 -45.785156 23.636719 -45.246094 23.183594 -44.535156 C 22.71875 -43.808594 22.351562 -43.035156 22.074219 -42.210938 C 21.824219 -41.46875 21.699219 -40.847656 21.699219 -40.34375 C 21.699219 -39.433594 21.917969 -38.730469 22.355469 -38.234375 C 22.472656 -38.105469 22.574219 -38.019531 22.667969 -37.972656 C 22.535156 -38.035156 22.332031 -38.050781 22.050781 -38.011719 L 22.441406 -35.105469 Z M 25.097656 -33.871094 L 24.421875 -32.414062 L 22.828125 -32.199219 C 21.929688 -32.082031 21.011719 -32.25 20.074219 -32.710938 C 19.296875 -33.09375 18.59375 -33.640625 17.96875 -34.34375 C 16.546875 -35.949219 15.832031 -37.949219 15.832031 -40.34375 C 15.832031 -41.488281 16.0625 -42.734375 16.515625 -44.085938 C 16.945312 -45.359375 17.519531 -46.558594 18.238281 -47.6875 C 19.050781 -48.960938 19.953125 -49.988281 20.949219 -50.769531 C 22.292969 -51.820312 23.703125 -52.347656 25.175781 -52.347656 C 27.152344 -52.347656 29.019531 -51.691406 30.785156 -50.382812 C 31.515625 -49.839844 32.121094 -49.25 32.605469 -48.613281 C 33.308594 -47.683594 33.660156 -46.753906 33.660156 -45.816406 C 33.660156 -44.96875 33.382812 -44.230469 32.828125 -43.59375 C 32.410156 -43.117188 31.890625 -42.777344 31.265625 -42.566406 L 30.335938 -45.347656 L 31.855469 -42.839844 C 30.730469 -42.160156 29.414062 -40.746094 27.910156 -38.601562 C 26.703125 -36.882812 25.765625 -35.304688 25.097656 -33.871094 Z M 9.695312 -1.054688 C 12.335938 -1.054688 17.328125 -6.851562 24.671875 -18.441406 C 25.222656 -19.3125 25.613281 -19.925781 25.84375 -20.28125 L 28.304688 -18.6875 L 25.371094 -18.6875 C 25.371094 -18.410156 25.433594 -18.167969 25.554688 -17.964844 C 25.589844 -17.90625 25.617188 -17.871094 25.636719 -17.851562 C 25.625 -17.863281 25.621094 -17.867188 25.617188 -17.867188 C 25.738281 -17.8125 25.90625 -17.789062 26.113281 -17.789062 L 26.113281 -20.71875 L 28.546875 -19.085938 C 24.769531 -13.460938 21.851562 -9.4375 19.796875 -7.015625 C 18.457031 -5.433594 17.246094 -4.226562 16.171875 -3.398438 C 14.6875 -2.253906 13.257812 -1.679688 11.882812 -1.679688 C 11.125 -1.679688 10.429688 -1.867188 9.796875 -2.238281 C 9.199219 -2.589844 8.714844 -3.074219 8.347656 -3.691406 C 7.863281 -4.503906 7.625 -5.488281 7.625 -6.644531 C 7.625 -8.230469 8.042969 -10.28125 8.882812 -12.796875 C 9.59375 -14.933594 10.527344 -17.191406 11.679688 -19.574219 C 12.804688 -21.902344 13.9375 -23.921875 15.070312 -25.636719 C 16.464844 -27.742188 17.726562 -29.097656 18.855469 -29.710938 L 20.25 -27.132812 L 18.492188 -29.476562 C 18.246094 -29.292969 18.046875 -29.039062 17.902344 -28.722656 C 17.773438 -28.445312 17.710938 -28.175781 17.710938 -27.914062 C 17.710938 -27.78125 17.726562 -27.664062 17.761719 -27.566406 L 17.753906 -27.566406 C 17.652344 -27.71875 17.488281 -27.875 17.261719 -28.042969 C 16.636719 -28.503906 15.964844 -28.734375 15.246094 -28.734375 C 15.578125 -28.734375 15.847656 -28.792969 16.058594 -28.910156 C 16.019531 -28.890625 15.941406 -28.828125 15.828125 -28.722656 C 15.425781 -28.355469 14.941406 -27.785156 14.371094 -27.015625 C 13.105469 -25.308594 11.78125 -23.121094 10.402344 -20.457031 C 8.964844 -17.671875 7.800781 -15.007812 6.910156 -12.460938 C 5.976562 -9.789062 5.511719 -7.722656 5.511719 -6.253906 C 5.511719 -4.769531 6.050781 -3.492188 7.125 -2.414062 C 7.582031 -1.960938 8.078125 -1.605469 8.609375 -1.355469 C 9.035156 -1.15625 9.394531 -1.054688 9.695312 -1.054688 Z M 9.695312 4.808594 C 8.523438 4.808594 7.328125 4.523438 6.117188 3.953125 C 4.964844 3.410156 3.917969 2.671875 2.980469 1.730469 C 1.96875 0.71875 1.175781 -0.429688 0.605469 -1.714844 C -0.03125 -3.152344 -0.351562 -4.667969 -0.351562 -6.253906 C -0.351562 -8.382812 0.222656 -11.09375 1.375 -14.390625 C 2.355469 -17.199219 3.628906 -20.121094 5.195312 -23.152344 C 9.140625 -30.78125 12.492188 -34.597656 15.246094 -34.597656 C 17.246094 -34.597656 19.078125 -33.988281 20.738281 -32.769531 C 21.519531 -32.191406 22.152344 -31.542969 22.632812 -30.820312 C 23.261719 -29.878906 23.574219 -28.910156 23.574219 -27.914062 C 23.574219 -26.609375 23.050781 -25.566406 22.011719 -24.785156 L 21.835938 -24.65625 L 21.644531 -24.550781 C 21.675781 -24.566406 21.695312 -24.578125 21.703125 -24.585938 C 21.683594 -24.570312 21.65625 -24.546875 21.621094 -24.515625 C 21.503906 -24.414062 21.371094 -24.273438 21.214844 -24.097656 C 20.84375 -23.667969 20.425781 -23.105469 19.960938 -22.398438 C 18.972656 -20.90625 17.96875 -19.113281 16.957031 -17.019531 C 15.914062 -14.867188 15.078125 -12.839844 14.445312 -10.941406 C 13.808594 -9.027344 13.488281 -7.597656 13.488281 -6.644531 C 13.488281 -6.546875 13.492188 -6.476562 13.5 -6.433594 C 13.488281 -6.5 13.449219 -6.585938 13.386719 -6.6875 C 13.242188 -6.933594 13.035156 -7.136719 12.765625 -7.292969 C 12.480469 -7.460938 12.1875 -7.546875 11.882812 -7.546875 C 11.832031 -7.546875 11.789062 -7.542969 11.757812 -7.535156 C 11.777344 -7.539062 11.808594 -7.550781 11.851562 -7.570312 C 12.050781 -7.660156 12.300781 -7.816406 12.59375 -8.042969 C 13.339844 -8.621094 14.25 -9.542969 15.328125 -10.8125 C 17.238281 -13.0625 20.023438 -16.910156 23.679688 -22.355469 L 24.550781 -23.652344 L 26.113281 -23.652344 C 27.253906 -23.652344 28.339844 -23.226562 29.371094 -22.375 C 29.871094 -21.960938 30.277344 -21.492188 30.589844 -20.96875 C 31.019531 -20.246094 31.234375 -19.484375 31.234375 -18.6875 L 31.234375 -17.820312 L 30.765625 -17.09375 C 30.546875 -16.757812 30.167969 -16.160156 29.625 -15.304688 C 28.113281 -12.914062 26.882812 -11.023438 25.941406 -9.628906 C 24.277344 -7.164062 22.722656 -5.046875 21.285156 -3.277344 C 19.40625 -0.960938 17.65625 0.839844 16.039062 2.128906 C 13.796875 3.914062 11.683594 4.808594 9.695312 4.808594 Z M 9.695312 4.808594 "/></g></g><g style="fill:#ffffff;fill-opacity:1;"><g transform="translate(246.440626, 236.686084)"><path style="stroke:none" d="M 9.695312 -0.117188 C 10.855469 -0.117188 13.503906 -3.785156 17.644531 -11.125 C 18.59375 -12.804688 19.285156 -14.011719 19.726562 -14.742188 C 20.492188 -16.019531 21.15625 -17.007812 21.714844 -17.703125 L 22.890625 -19.171875 L 28.539062 -17.761719 L 27.371094 -14.675781 C 26.847656 -13.296875 26.460938 -12.109375 26.214844 -11.109375 C 25.859375 -9.6875 25.683594 -8.332031 25.683594 -7.035156 C 25.683594 -5.550781 26.039062 -4.414062 26.742188 -3.628906 C 26.976562 -3.371094 27.226562 -3.175781 27.492188 -3.046875 C 27.652344 -2.96875 27.765625 -2.933594 27.835938 -2.933594 C 27.894531 -2.933594 28.007812 -2.964844 28.175781 -3.027344 C 28.480469 -3.140625 28.835938 -3.328125 29.238281 -3.589844 C 30.242188 -4.242188 31.386719 -5.238281 32.671875 -6.585938 C 35.6875 -9.753906 38.972656 -14.292969 42.523438 -20.199219 L 45.035156 -18.6875 L 42.105469 -18.6875 C 42.105469 -18.410156 42.164062 -18.167969 42.285156 -17.964844 C 42.320312 -17.90625 42.347656 -17.871094 42.367188 -17.851562 C 42.355469 -17.863281 42.351562 -17.867188 42.351562 -17.867188 C 42.472656 -17.8125 42.636719 -17.789062 42.847656 -17.789062 L 42.847656 -20.71875 L 45.269531 -19.070312 C 41.957031 -14.199219 39.292969 -10.699219 37.277344 -8.5625 C 36.136719 -7.351562 35.078125 -6.4375 34.105469 -5.820312 C 32.882812 -5.042969 31.675781 -4.652344 30.492188 -4.652344 C 29.851562 -4.652344 29.261719 -4.78125 28.71875 -5.042969 C 28.101562 -5.34375 27.597656 -5.78125 27.214844 -6.359375 C 26.714844 -7.105469 26.464844 -8.035156 26.464844 -9.148438 C 26.464844 -11.011719 27.105469 -13.402344 28.382812 -16.324219 C 28.886719 -17.476562 29.394531 -18.46875 29.898438 -19.292969 C 30.1875 -19.769531 30.464844 -20.164062 30.730469 -20.476562 C 31.355469 -21.21875 32.066406 -21.660156 32.863281 -21.804688 L 33.386719 -18.921875 L 31.3125 -20.996094 C 30.898438 -20.578125 30.6875 -20.121094 30.6875 -19.625 C 30.6875 -19.453125 30.714844 -19.308594 30.761719 -19.1875 C 30.769531 -19.167969 30.773438 -19.15625 30.777344 -19.152344 C 30.769531 -19.164062 30.757812 -19.183594 30.742188 -19.203125 C 30.605469 -19.394531 30.386719 -19.59375 30.09375 -19.800781 C 29.335938 -20.335938 28.582031 -20.601562 27.835938 -20.601562 C 28.058594 -20.601562 28.21875 -20.628906 28.3125 -20.675781 C 28.1875 -20.609375 28.011719 -20.484375 27.789062 -20.296875 C 27.222656 -19.820312 26.519531 -19.074219 25.675781 -18.066406 C 24.539062 -16.714844 22.714844 -14.269531 20.195312 -10.734375 C 18.199219 -7.933594 16.78125 -6.015625 15.949219 -4.980469 C 15.222656 -4.082031 14.589844 -3.382812 14.054688 -2.886719 C 13.015625 -1.925781 11.976562 -1.445312 10.945312 -1.445312 C 10.378906 -1.445312 9.847656 -1.5625 9.351562 -1.800781 C 8.757812 -2.082031 8.273438 -2.503906 7.902344 -3.066406 C 7.402344 -3.8125 7.152344 -4.769531 7.152344 -5.941406 C 7.152344 -7.816406 7.710938 -10.222656 8.820312 -13.164062 C 9.902344 -16.027344 11.28125 -18.804688 12.953125 -21.488281 C 14.863281 -24.554688 16.871094 -27.003906 18.976562 -28.84375 C 21.695312 -31.21875 24.414062 -32.410156 27.132812 -32.410156 C 29.230469 -32.410156 30.890625 -31.84375 32.101562 -30.710938 C 33.507812 -29.402344 34.183594 -27.480469 34.128906 -24.957031 L 31.195312 -25.019531 L 30.75 -27.917969 C 30.921875 -27.945312 31.050781 -27.980469 31.140625 -28.027344 L 31.148438 -28.023438 C 31.140625 -28.015625 31.132812 -28.007812 31.128906 -28 L 31.132812 -28.007812 C 31.148438 -28.058594 31.15625 -28.132812 31.15625 -28.226562 C 31.15625 -28.210938 31.160156 -28.199219 31.160156 -28.195312 C 31.152344 -28.222656 31.144531 -28.253906 31.128906 -28.296875 C 31.074219 -28.441406 30.976562 -28.609375 30.847656 -28.796875 C 30.492188 -29.296875 29.988281 -29.785156 29.332031 -30.265625 C 28.621094 -30.785156 27.867188 -31.191406 27.0625 -31.492188 C 26.265625 -31.792969 25.53125 -31.941406 24.863281 -31.941406 C 23.230469 -31.941406 21.292969 -31.125 19.054688 -29.5 C 16.746094 -27.824219 14.496094 -25.554688 12.308594 -22.691406 C 10.140625 -19.859375 8.402344 -16.933594 7.089844 -13.914062 C 5.777344 -10.886719 5.121094 -8.28125 5.121094 -6.097656 C 5.121094 -5.355469 5.265625 -4.605469 5.558594 -3.847656 C 5.847656 -3.105469 6.242188 -2.429688 6.75 -1.828125 C 7.230469 -1.257812 7.75 -0.820312 8.308594 -0.515625 C 8.796875 -0.25 9.257812 -0.117188 9.695312 -0.117188 Z M 9.695312 5.746094 C 8.261719 5.746094 6.863281 5.375 5.503906 4.632812 C 4.296875 3.976562 3.214844 3.082031 2.261719 1.945312 C 1.335938 0.84375 0.609375 -0.382812 0.0859375 -1.738281 C -0.464844 -3.171875 -0.742188 -4.625 -0.742188 -6.097656 C -0.742188 -9.09375 0.0742188 -12.476562 1.710938 -16.246094 C 3.210938 -19.703125 5.191406 -23.039062 7.648438 -26.253906 C 10.1875 -29.570312 12.835938 -32.230469 15.605469 -34.242188 C 18.875 -36.617188 21.960938 -37.804688 24.863281 -37.804688 C 26.238281 -37.804688 27.65625 -37.53125 29.113281 -36.988281 C 30.421875 -36.496094 31.648438 -35.835938 32.789062 -35 C 33.964844 -34.140625 34.914062 -33.199219 35.636719 -32.175781 C 36.5625 -30.867188 37.023438 -29.550781 37.023438 -28.226562 C 37.023438 -26.691406 36.570312 -25.378906 35.664062 -24.285156 C 34.6875 -23.105469 33.347656 -22.382812 31.644531 -22.121094 L 28.1875 -21.589844 L 28.265625 -25.085938 C 28.277344 -25.609375 28.238281 -26.015625 28.144531 -26.300781 C 28.125 -26.363281 28.105469 -26.410156 28.085938 -26.441406 C 28.089844 -26.4375 28.09375 -26.433594 28.101562 -26.421875 C 28.109375 -26.414062 28.117188 -26.410156 28.117188 -26.410156 C 28.089844 -26.425781 28.050781 -26.441406 27.996094 -26.457031 C 27.789062 -26.515625 27.5 -26.542969 27.132812 -26.542969 C 25.882812 -26.542969 24.449219 -25.839844 22.835938 -24.425781 C 21.167969 -22.972656 19.535156 -20.957031 17.929688 -18.386719 C 16.460938 -16.027344 15.25 -13.597656 14.304688 -11.089844 C 13.449219 -8.820312 13.019531 -7.101562 13.019531 -5.941406 C 13.019531 -5.875 13.019531 -5.824219 13.023438 -5.78125 L 13.023438 -5.785156 C 12.984375 -5.953125 12.90625 -6.128906 12.78125 -6.316406 C 12.554688 -6.65625 12.253906 -6.914062 11.875 -7.09375 C 11.570312 -7.238281 11.261719 -7.3125 10.945312 -7.3125 C 10.539062 -7.3125 10.199219 -7.226562 9.925781 -7.0625 L 9.925781 -7.066406 C 9.96875 -7.097656 10.019531 -7.140625 10.078125 -7.195312 C 10.402344 -7.496094 10.835938 -7.984375 11.382812 -8.660156 C 12.144531 -9.605469 13.492188 -11.433594 15.421875 -14.140625 C 18.027344 -17.796875 19.945312 -20.363281 21.179688 -21.832031 C 22.238281 -23.101562 23.183594 -24.082031 24.007812 -24.777344 C 25.34375 -25.902344 26.617188 -26.464844 27.835938 -26.464844 C 28.847656 -26.464844 29.871094 -26.285156 30.902344 -25.917969 C 31.820312 -25.59375 32.679688 -25.152344 33.472656 -24.589844 C 34.296875 -24.011719 34.964844 -23.367188 35.484375 -22.652344 C 36.195312 -21.671875 36.554688 -20.664062 36.554688 -19.625 C 36.554688 -18.503906 36.1875 -17.578125 35.460938 -16.847656 L 34.8125 -16.199219 L 33.910156 -16.035156 C 34.351562 -16.117188 34.730469 -16.285156 35.046875 -16.542969 C 35.121094 -16.601562 35.171875 -16.652344 35.207031 -16.691406 C 35.136719 -16.609375 35.035156 -16.460938 34.902344 -16.242188 C 34.539062 -15.640625 34.15625 -14.882812 33.757812 -13.972656 C 33.320312 -12.980469 32.976562 -12.039062 32.714844 -11.152344 C 32.460938 -10.273438 32.332031 -9.605469 32.332031 -9.148438 C 32.332031 -9.105469 32.332031 -9.074219 32.335938 -9.050781 C 32.332031 -9.054688 32.332031 -9.070312 32.328125 -9.089844 C 32.292969 -9.257812 32.214844 -9.429688 32.09375 -9.613281 C 31.886719 -9.921875 31.609375 -10.160156 31.265625 -10.328125 C 31.003906 -10.453125 30.746094 -10.515625 30.492188 -10.515625 L 30.496094 -10.527344 C 30.621094 -10.570312 30.777344 -10.652344 30.960938 -10.769531 C 31.523438 -11.125 32.207031 -11.734375 33.011719 -12.585938 C 34.816406 -14.496094 37.285156 -17.757812 40.421875 -22.371094 L 41.296875 -23.652344 L 42.847656 -23.652344 C 43.988281 -23.652344 45.070312 -23.226562 46.101562 -22.375 C 46.605469 -21.960938 47.011719 -21.492188 47.324219 -20.96875 C 47.753906 -20.246094 47.96875 -19.484375 47.96875 -18.6875 L 47.96875 -17.875 L 47.550781 -17.175781 C 43.777344 -10.902344 40.234375 -6.023438 36.917969 -2.542969 C 33.441406 1.105469 30.414062 2.933594 27.835938 2.933594 C 26.867188 2.933594 25.902344 2.699219 24.9375 2.234375 C 23.980469 1.769531 23.125 1.121094 22.378906 0.285156 C 20.671875 -1.613281 19.820312 -4.054688 19.820312 -7.035156 C 19.820312 -8.808594 20.054688 -10.636719 20.523438 -12.523438 C 20.828125 -13.746094 21.28125 -15.160156 21.886719 -16.753906 L 24.628906 -15.714844 L 23.917969 -12.871094 L 23.292969 -13.027344 L 24.003906 -15.871094 L 26.292969 -14.039062 C 25.679688 -13.273438 24.5 -11.339844 22.75 -8.242188 C 21.644531 -6.285156 20.796875 -4.8125 20.207031 -3.832031 C 19.183594 -2.132812 18.25 -0.710938 17.398438 0.433594 C 16.285156 1.933594 15.214844 3.101562 14.195312 3.933594 C 12.707031 5.140625 11.207031 5.746094 9.695312 5.746094 Z M 9.695312 5.746094 "/></g></g><g style="fill:#890355;fill-opacity:1;"><g transform="translate(89.835774, 236.686084)"><path style="stroke:none" d="M 29.242188 -6.644531 C 23.300781 -6.644531 17.125 -5.707031 11.882812 -4.222656 C 13.136719 -12.589844 24.394531 -35.261719 32.839844 -45.113281 C 33.074219 -45.347656 33.152344 -45.582031 33.152344 -45.898438 C 33.152344 -47.304688 30.648438 -49.492188 28.539062 -49.492188 C 28.070312 -49.492188 27.679688 -49.335938 27.289062 -49.101562 C 21.34375 -45.035156 5.238281 -17.28125 5.238281 -7.664062 C 5.238281 -5.785156 6.644531 -3.988281 8.210938 -2.972656 C 6.097656 -2.1875 4.300781 -1.328125 2.894531 -0.390625 C 1.25 0.78125 0.625 2.738281 0.625 3.988281 C 0.625 4.691406 0.859375 5.238281 1.25 5.238281 C 1.484375 5.238281 1.796875 5.082031 2.1875 4.613281 C 3.519531 2.816406 17.984375 0.15625 26.585938 0.15625 C 30.101562 0.15625 32.683594 0.625 32.917969 1.71875 C 33.699219 1.71875 34.246094 0.390625 34.246094 -1.25 C 34.246094 -3.675781 32.996094 -6.644531 29.242188 -6.644531 Z M 29.242188 -6.644531 "/></g></g><g style="fill:#890355;fill-opacity:1;"><g transform="translate(125.800944, 236.686084)"><path style="stroke:none" d="M 22.441406 -35.105469 C 23.457031 -37.296875 26.976562 -43.316406 30.335938 -45.347656 C 30.570312 -45.425781 30.726562 -45.582031 30.726562 -45.816406 C 30.726562 -46.914062 28.070312 -49.414062 25.175781 -49.414062 C 21.816406 -49.414062 18.765625 -43.628906 18.765625 -40.34375 C 18.765625 -36.671875 21.265625 -34.949219 22.441406 -35.105469 Z M 9.695312 1.875 C 15.871094 1.875 24.863281 -13.371094 28.304688 -18.6875 C 28.304688 -19.78125 26.898438 -20.71875 26.113281 -20.71875 C 19.390625 -10.710938 14.777344 -4.613281 11.882812 -4.613281 C 10.945312 -4.613281 10.554688 -5.472656 10.554688 -6.644531 C 10.554688 -11.960938 17.359375 -25.566406 20.25 -27.132812 C 20.5625 -27.367188 20.640625 -27.601562 20.640625 -27.914062 C 20.640625 -29.554688 18.0625 -31.667969 15.246094 -31.667969 C 12.277344 -31.667969 2.582031 -13.839844 2.582031 -6.253906 C 2.582031 -1.328125 6.800781 1.875 9.695312 1.875 Z M 9.695312 1.875 "/></g></g><g style="fill:#890355;fill-opacity:1;"><g transform="translate(143.705343, 236.686084)"><path style="stroke:none" d="M 12.667969 2.582031 C 19.78125 2.582031 28.617188 -3.753906 38.78125 -18.6875 C 38.78125 -19.78125 37.375 -20.71875 36.59375 -20.71875 C 29.320312 -9.851562 19.703125 -3.050781 13.996094 -3.050781 C 11.335938 -3.050781 10.242188 -4.769531 10.242188 -7.351562 C 10.242188 -14.855469 19.625 -29.867188 24.707031 -29.867188 C 25.566406 -29.867188 25.957031 -29.320312 25.957031 -28.460938 C 25.957031 -25.722656 22.597656 -20.015625 19.78125 -17.28125 C 20.484375 -16.574219 21.265625 -16.261719 22.128906 -16.261719 C 26.113281 -16.261719 30.960938 -22.988281 30.960938 -27.367188 C 30.960938 -30.179688 28.070312 -34.558594 23.300781 -34.558594 C 13.996094 -34.558594 2.34375 -16.96875 2.34375 -7.585938 C 2.34375 -1.484375 7.035156 2.582031 12.667969 2.582031 Z M 12.667969 2.582031 "/></g></g><g style="fill:#890355;fill-opacity:1;"><g transform="translate(172.086552, 236.686084)"><path style="stroke:none" d="M 36.59375 -20.71875 C 29.085938 -9.617188 19.234375 -3.285156 13.839844 -3.285156 C 11.257812 -3.285156 10.164062 -4.925781 10.164062 -7.035156 L 10.164062 -7.273438 C 19.546875 -10.007812 30.726562 -21.34375 30.726562 -27.835938 C 30.726562 -31.351562 27.445312 -34.558594 23.535156 -34.558594 C 14.308594 -34.558594 2.34375 -16.730469 2.34375 -7.273438 C 2.34375 -1.5625 6.800781 2.582031 12.433594 2.582031 C 19.546875 2.582031 28.304688 -3.128906 38.78125 -18.6875 C 38.78125 -19.78125 37.375 -20.71875 36.59375 -20.71875 Z M 25.019531 -29.242188 C 25.957031 -29.242188 26.347656 -28.773438 26.347656 -27.914062 C 26.347656 -24.082031 17.4375 -13.605469 10.945312 -11.257812 C 13.292969 -18.921875 20.796875 -29.242188 25.019531 -29.242188 Z M 25.019531 -29.242188 "/></g></g><g style="fill:#890355;fill-opacity:1;"><g transform="translate(200.467766, 236.686084)"><path style="stroke:none" d="M 36.28125 -20.71875 C 33.308594 -16.183594 23.925781 -3.753906 19.859375 -3.753906 C 19.15625 -3.753906 18.84375 -4.144531 18.84375 -4.769531 C 18.84375 -8.132812 26.976562 -19.234375 26.976562 -23.925781 C 26.976562 -28.539062 19.15625 -29.007812 19.15625 -30.804688 C 19.15625 -31.589844 20.5625 -33.230469 22.519531 -35.027344 C 23.300781 -36.28125 19.390625 -39.09375 17.671875 -39.09375 C 15.402344 -39.09375 12.511719 -35.261719 12.511719 -32.371094 C 12.511719 -31.433594 12.824219 -30.726562 13.292969 -30.101562 C 12.121094 -27.289062 10.242188 -23.925781 8.210938 -20.71875 C 8.210938 -19.703125 9.460938 -18.6875 10.398438 -18.6875 C 12.667969 -22.363281 14.542969 -25.488281 16.105469 -28.148438 C 17.75 -27.289062 19.3125 -26.425781 19.3125 -24.863281 C 19.3125 -21.03125 10.632812 -12.277344 10.632812 -5.316406 C 10.632812 -0.9375 13.996094 2.503906 17.4375 2.503906 C 22.753906 2.503906 30.023438 -5.941406 38.46875 -18.6875 C 38.46875 -19.78125 37.0625 -20.71875 36.28125 -20.71875 Z M 36.28125 -20.71875 "/></g></g><g style="fill:#890355;fill-opacity:1;"><g transform="translate(228.536223, 236.686084)"><path style="stroke:none" d="M 22.441406 -35.105469 C 23.457031 -37.296875 26.976562 -43.316406 30.335938 -45.347656 C 30.570312 -45.425781 30.726562 -45.582031 30.726562 -45.816406 C 30.726562 -46.914062 28.070312 -49.414062 25.175781 -49.414062 C 21.816406 -49.414062 18.765625 -43.628906 18.765625 -40.34375 C 18.765625 -36.671875 21.265625 -34.949219 22.441406 -35.105469 Z M 9.695312 1.875 C 15.871094 1.875 24.863281 -13.371094 28.304688 -18.6875 C 28.304688 -19.78125 26.898438 -20.71875 26.113281 -20.71875 C 19.390625 -10.710938 14.777344 -4.613281 11.882812 -4.613281 C 10.945312 -4.613281 10.554688 -5.472656 10.554688 -6.644531 C 10.554688 -11.960938 17.359375 -25.566406 20.25 -27.132812 C 20.5625 -27.367188 20.640625 -27.601562 20.640625 -27.914062 C 20.640625 -29.554688 18.0625 -31.667969 15.246094 -31.667969 C 12.277344 -31.667969 2.582031 -13.839844 2.582031 -6.253906 C 2.582031 -1.328125 6.800781 1.875 9.695312 1.875 Z M 9.695312 1.875 "/></g></g><g style="fill:#890355;fill-opacity:1;"><g transform="translate(246.440626, 236.686084)"><path style="stroke:none" d="M 9.695312 2.816406 C 14.699219 2.816406 20.5625 -11.570312 24.003906 -15.871094 L 24.628906 -15.714844 C 23.769531 -13.449219 22.753906 -10.476562 22.753906 -7.035156 C 22.753906 -2.109375 25.878906 0 27.835938 0 C 31.117188 0 37.375 -5.941406 45.035156 -18.6875 C 45.035156 -19.78125 43.628906 -20.71875 42.847656 -20.71875 C 36.359375 -11.179688 32.917969 -7.585938 30.492188 -7.585938 C 29.710938 -7.585938 29.398438 -8.132812 29.398438 -9.148438 C 29.398438 -12.277344 32.527344 -18.765625 33.386719 -18.921875 C 33.542969 -19.078125 33.621094 -19.3125 33.621094 -19.625 C 33.621094 -21.265625 30.648438 -23.535156 27.835938 -23.535156 C 24.003906 -23.535156 13.449219 -4.378906 10.945312 -4.378906 C 10.476562 -4.378906 10.085938 -4.691406 10.085938 -5.941406 C 10.085938 -11.882812 18.6875 -29.476562 27.132812 -29.476562 C 29.554688 -29.476562 31.273438 -28.539062 31.195312 -25.019531 C 33.230469 -25.332031 34.089844 -26.664062 34.089844 -28.226562 C 34.089844 -31.117188 29.085938 -34.871094 24.863281 -34.871094 C 15.402344 -34.871094 2.1875 -16.730469 2.1875 -6.097656 C 2.1875 -1.5625 5.863281 2.816406 9.695312 2.816406 Z M 9.695312 2.816406 "/></g></g><g style="fill:#890355;fill-opacity:1;"><g transform="translate(112.491693, 268.717425)"><path style="stroke:none" d="M 9.640625 -8.125 L 9.640625 -8.359375 L 12.796875 -8.359375 L 12.796875 -8.125 C 12.628906 -8.09375 12.484375 -8.046875 12.359375 -7.984375 C 12.234375 -7.921875 12.109375 -7.804688 11.984375 -7.640625 C 11.867188 -7.472656 11.734375 -7.222656 11.578125 -6.890625 C 11.421875 -6.554688 11.222656 -6.097656 10.984375 -5.515625 C 10.816406 -5.066406 10.640625 -4.597656 10.453125 -4.109375 C 10.265625 -3.628906 10.082031 -3.15625 9.90625 -2.6875 C 9.726562 -2.21875 9.5625 -1.785156 9.40625 -1.390625 C 9.257812 -1.003906 9.140625 -0.679688 9.046875 -0.421875 C 8.960938 -0.160156 8.921875 0.00390625 8.921875 0.078125 L 8.203125 0.078125 C 8.203125 0.00390625 8.15625 -0.179688 8.0625 -0.484375 C 7.976562 -0.796875 7.859375 -1.1875 7.703125 -1.65625 C 7.546875 -2.125 7.367188 -2.644531 7.171875 -3.21875 C 6.972656 -3.800781 6.769531 -4.410156 6.5625 -5.046875 C 6.34375 -4.503906 6.113281 -3.945312 5.875 -3.375 C 5.632812 -2.8125 5.410156 -2.28125 5.203125 -1.78125 C 4.992188 -1.289062 4.828125 -0.875 4.703125 -0.53125 C 4.578125 -0.195312 4.515625 0.00390625 4.515625 0.078125 L 3.796875 0.078125 C 3.785156 -0.015625 3.710938 -0.265625 3.578125 -0.671875 C 3.441406 -1.085938 3.265625 -1.609375 3.046875 -2.234375 C 2.828125 -2.867188 2.578125 -3.5625 2.296875 -4.3125 C 2.023438 -5.0625 1.753906 -5.820312 1.484375 -6.59375 C 1.359375 -6.96875 1.238281 -7.253906 1.125 -7.453125 C 1.019531 -7.648438 0.898438 -7.796875 0.765625 -7.890625 C 0.628906 -7.984375 0.453125 -8.0625 0.234375 -8.125 L 0.234375 -8.359375 L 3.203125 -8.359375 L 3.203125 -8.125 C 2.816406 -8.019531 2.578125 -7.851562 2.484375 -7.625 C 2.398438 -7.40625 2.425781 -7.117188 2.5625 -6.765625 L 4.5625 -1.15625 L 6.34375 -5.671875 C 6.300781 -5.828125 6.253906 -5.984375 6.203125 -6.140625 C 6.148438 -6.296875 6.097656 -6.445312 6.046875 -6.59375 C 5.921875 -6.96875 5.800781 -7.253906 5.6875 -7.453125 C 5.582031 -7.648438 5.460938 -7.796875 5.328125 -7.890625 C 5.191406 -7.984375 5.007812 -8.0625 4.78125 -8.125 L 4.78125 -8.359375 L 7.765625 -8.359375 L 7.765625 -8.125 C 7.378906 -8.050781 7.144531 -7.894531 7.0625 -7.65625 C 6.988281 -7.414062 7.003906 -7.117188 7.109375 -6.765625 L 8.9375 -1.125 L 10.421875 -5.421875 C 10.640625 -6.046875 10.757812 -6.546875 10.78125 -6.921875 C 10.800781 -7.296875 10.71875 -7.578125 10.53125 -7.765625 C 10.34375 -7.953125 10.046875 -8.070312 9.640625 -8.125 Z M 9.640625 -8.125 "/></g></g><g style="fill:#890355;fill-opacity:1;"><g transform="translate(126.627708, 268.717425)"><path style="stroke:none" d="M 4.796875 0.1875 C 4.171875 0.1875 3.597656 0.078125 3.078125 -0.140625 C 2.566406 -0.367188 2.117188 -0.6875 1.734375 -1.09375 C 1.359375 -1.5 1.066406 -1.96875 0.859375 -2.5 C 0.648438 -3.03125 0.546875 -3.597656 0.546875 -4.203125 C 0.546875 -4.804688 0.65625 -5.375 0.875 -5.90625 C 1.101562 -6.4375 1.410156 -6.898438 1.796875 -7.296875 C 2.191406 -7.691406 2.644531 -8 3.15625 -8.21875 C 3.675781 -8.445312 4.226562 -8.5625 4.8125 -8.5625 C 5.445312 -8.5625 6.019531 -8.445312 6.53125 -8.21875 C 7.050781 -8 7.5 -7.691406 7.875 -7.296875 C 8.257812 -6.898438 8.554688 -6.441406 8.765625 -5.921875 C 8.972656 -5.398438 9.078125 -4.832031 9.078125 -4.21875 C 9.078125 -3.59375 8.960938 -3.015625 8.734375 -2.484375 C 8.515625 -1.953125 8.207031 -1.484375 7.8125 -1.078125 C 7.414062 -0.679688 6.960938 -0.367188 6.453125 -0.140625 C 5.941406 0.078125 5.390625 0.1875 4.796875 0.1875 Z M 5.078125 -0.15625 C 5.671875 -0.175781 6.171875 -0.359375 6.578125 -0.703125 C 6.992188 -1.046875 7.304688 -1.507812 7.515625 -2.09375 C 7.722656 -2.675781 7.8125 -3.347656 7.78125 -4.109375 C 7.75 -4.941406 7.59375 -5.664062 7.3125 -6.28125 C 7.039062 -6.90625 6.664062 -7.390625 6.1875 -7.734375 C 5.707031 -8.078125 5.15625 -8.234375 4.53125 -8.203125 C 3.945312 -8.191406 3.445312 -8.019531 3.03125 -7.6875 C 2.625 -7.351562 2.316406 -6.898438 2.109375 -6.328125 C 1.898438 -5.753906 1.8125 -5.101562 1.84375 -4.375 C 1.875 -3.519531 2.023438 -2.769531 2.296875 -2.125 C 2.578125 -1.488281 2.957031 -0.992188 3.4375 -0.640625 C 3.914062 -0.296875 4.460938 -0.132812 5.078125 -0.15625 Z M 5.078125 -0.15625 "/></g></g><g style="fill:#890355;fill-opacity:1;"><g transform="translate(137.595725, 268.717425)"><path style="stroke:none" d="M 9.796875 -6.890625 L 10.0625 -2.03125 C 10.070312 -1.675781 10.085938 -1.394531 10.109375 -1.1875 C 10.140625 -0.976562 10.179688 -0.816406 10.234375 -0.703125 C 10.285156 -0.597656 10.375 -0.507812 10.5 -0.4375 C 10.625 -0.375 10.789062 -0.304688 11 -0.234375 L 11 0 L 7.953125 0 L 7.953125 -0.25 C 8.253906 -0.34375 8.484375 -0.441406 8.640625 -0.546875 C 8.796875 -0.648438 8.894531 -0.816406 8.9375 -1.046875 C 8.988281 -1.273438 9 -1.609375 8.96875 -2.046875 L 8.75 -7.21875 L 6.078125 -1.421875 C 6.046875 -1.347656 5.984375 -1.207031 5.890625 -1 C 5.796875 -0.800781 5.703125 -0.507812 5.609375 -0.125 L 5.15625 -0.125 C 5.113281 -0.320312 5.054688 -0.515625 4.984375 -0.703125 C 4.910156 -0.898438 4.828125 -1.097656 4.734375 -1.296875 L 2.015625 -7.171875 L 1.890625 -3.859375 C 1.859375 -3.023438 1.875 -2.347656 1.9375 -1.828125 C 2.007812 -1.316406 2.144531 -0.9375 2.34375 -0.6875 C 2.550781 -0.445312 2.847656 -0.296875 3.234375 -0.234375 L 3.234375 -0.015625 L 0.234375 0 L 0.234375 -0.234375 C 0.429688 -0.273438 0.59375 -0.359375 0.71875 -0.484375 C 0.851562 -0.609375 0.96875 -0.800781 1.0625 -1.0625 C 1.164062 -1.320312 1.242188 -1.679688 1.296875 -2.140625 C 1.359375 -2.597656 1.414062 -3.1875 1.46875 -3.90625 L 1.53125 -4.890625 C 1.5625 -5.546875 1.59375 -6.050781 1.625 -6.40625 C 1.664062 -6.769531 1.6875 -7.023438 1.6875 -7.171875 C 1.6875 -7.453125 1.609375 -7.660156 1.453125 -7.796875 C 1.304688 -7.941406 1.066406 -8.050781 0.734375 -8.125 L 0.734375 -8.359375 L 2.890625 -8.359375 C 2.890625 -8.234375 2.910156 -8.0625 2.953125 -7.84375 C 3.003906 -7.632812 3.101562 -7.367188 3.25 -7.046875 L 5.78125 -1.640625 L 8.203125 -6.859375 C 8.253906 -6.960938 8.316406 -7.101562 8.390625 -7.28125 C 8.460938 -7.46875 8.523438 -7.65625 8.578125 -7.84375 C 8.640625 -8.039062 8.671875 -8.210938 8.671875 -8.359375 L 10.734375 -8.359375 L 10.734375 -8.125 C 10.378906 -8.050781 10.125 -7.9375 9.96875 -7.78125 C 9.820312 -7.632812 9.765625 -7.335938 9.796875 -6.890625 Z M 9.796875 -6.890625 "/></g></g><g style="fill:#890355;fill-opacity:1;"><g transform="translate(150.243746, 268.717425)"><path style="stroke:none" d="M 6.71875 -2.234375 L 6.9375 -2.140625 L 6.171875 0 L 0.390625 0 L 0.390625 -0.234375 C 0.703125 -0.316406 0.925781 -0.425781 1.0625 -0.5625 C 1.195312 -0.707031 1.273438 -0.894531 1.296875 -1.125 C 1.328125 -1.351562 1.34375 -1.644531 1.34375 -2 L 1.34375 -6.359375 C 1.34375 -6.722656 1.328125 -7.015625 1.296875 -7.234375 C 1.273438 -7.460938 1.195312 -7.644531 1.0625 -7.78125 C 0.925781 -7.925781 0.703125 -8.039062 0.390625 -8.125 L 0.390625 -8.359375 L 6.03125 -8.359375 L 6.1875 -6.28125 L 5.953125 -6.234375 C 5.796875 -6.703125 5.609375 -7.066406 5.390625 -7.328125 C 5.179688 -7.585938 4.921875 -7.769531 4.609375 -7.875 C 4.304688 -7.988281 3.929688 -8.046875 3.484375 -8.046875 C 3.367188 -8.046875 3.265625 -8.039062 3.171875 -8.03125 C 3.085938 -8.03125 2.988281 -8.03125 2.875 -8.03125 C 2.769531 -8.03125 2.617188 -8.023438 2.421875 -8.015625 L 2.421875 -4.484375 L 3.296875 -4.515625 C 3.722656 -4.523438 4.054688 -4.570312 4.296875 -4.65625 C 4.546875 -4.75 4.734375 -4.875 4.859375 -5.03125 C 4.984375 -5.1875 5.066406 -5.375 5.109375 -5.59375 L 5.3125 -5.59375 L 5.28125 -2.921875 L 5.0625 -2.921875 C 5.019531 -3.148438 4.945312 -3.351562 4.84375 -3.53125 C 4.738281 -3.707031 4.5625 -3.851562 4.3125 -3.96875 C 4.070312 -4.082031 3.734375 -4.144531 3.296875 -4.15625 L 2.421875 -4.171875 L 2.421875 -0.390625 C 2.617188 -0.367188 2.835938 -0.351562 3.078125 -0.34375 C 3.316406 -0.34375 3.507812 -0.34375 3.65625 -0.34375 C 4.25 -0.34375 4.796875 -0.472656 5.296875 -0.734375 C 5.804688 -1.003906 6.28125 -1.503906 6.71875 -2.234375 Z M 6.71875 -2.234375 "/></g></g><g style="fill:#890355;fill-opacity:1;"><g transform="translate(158.763757, 268.717425)"><path style="stroke:none" d="M 6.21875 -8.125 L 6.21875 -8.359375 L 9.078125 -8.359375 L 9.078125 -8.125 C 8.890625 -8.070312 8.738281 -7.984375 8.625 -7.859375 C 8.507812 -7.742188 8.425781 -7.546875 8.375 -7.265625 C 8.320312 -6.992188 8.28125 -6.59375 8.25 -6.0625 C 8.226562 -5.539062 8.210938 -4.847656 8.203125 -3.984375 L 8.1875 -1.640625 C 8.175781 -1.253906 8.175781 -0.914062 8.1875 -0.625 C 8.195312 -0.332031 8.207031 -0.09375 8.21875 0.09375 L 7.65625 0.09375 C 7.570312 -0.03125 7.460938 -0.171875 7.328125 -0.328125 C 7.191406 -0.492188 7.03125 -0.6875 6.84375 -0.90625 L 1.5625 -7.125 C 1.5625 -6.351562 1.570312 -5.65625 1.59375 -5.03125 C 1.613281 -4.414062 1.628906 -3.816406 1.640625 -3.234375 C 1.671875 -2.566406 1.738281 -2.023438 1.84375 -1.609375 C 1.945312 -1.191406 2.109375 -0.875 2.328125 -0.65625 C 2.554688 -0.445312 2.851562 -0.304688 3.21875 -0.234375 L 3.21875 0 L 0.296875 0 L 0.296875 -0.234375 C 0.453125 -0.265625 0.582031 -0.328125 0.6875 -0.421875 C 0.800781 -0.523438 0.890625 -0.6875 0.953125 -0.90625 C 1.023438 -1.132812 1.078125 -1.445312 1.109375 -1.84375 C 1.140625 -2.25 1.160156 -2.78125 1.171875 -3.4375 L 1.21875 -7.015625 C 1.21875 -7.234375 1.203125 -7.410156 1.171875 -7.546875 C 1.140625 -7.691406 1.066406 -7.8125 0.953125 -7.90625 C 0.847656 -8 0.671875 -8.070312 0.421875 -8.125 L 0.421875 -8.359375 L 2.203125 -8.359375 C 2.265625 -8.210938 2.34375 -8.070312 2.4375 -7.9375 C 2.53125 -7.800781 2.640625 -7.660156 2.765625 -7.515625 L 7.84375 -1.515625 L 7.78125 -4 C 7.757812 -4.757812 7.722656 -5.390625 7.671875 -5.890625 C 7.617188 -6.390625 7.535156 -6.789062 7.421875 -7.09375 C 7.316406 -7.40625 7.164062 -7.640625 6.96875 -7.796875 C 6.78125 -7.960938 6.53125 -8.070312 6.21875 -8.125 Z M 6.21875 -8.125 "/></g></g><g style="fill:#890355;fill-opacity:1;"><g transform="translate(169.491769, 268.717425)"><path style="stroke:none" d="M 1.046875 -5.546875 L 0.890625 -5.71875 C 1.015625 -5.84375 1.132812 -5.976562 1.25 -6.125 C 1.363281 -6.269531 1.457031 -6.410156 1.53125 -6.546875 C 1.613281 -6.691406 1.648438 -6.8125 1.640625 -6.90625 C 1.640625 -6.976562 1.601562 -7.035156 1.53125 -7.078125 C 1.46875 -7.128906 1.394531 -7.175781 1.3125 -7.21875 C 1.226562 -7.269531 1.15625 -7.332031 1.09375 -7.40625 C 1.03125 -7.488281 1 -7.601562 1 -7.75 C 1 -7.9375 1.066406 -8.09375 1.203125 -8.21875 C 1.347656 -8.34375 1.523438 -8.40625 1.734375 -8.40625 C 1.941406 -8.40625 2.113281 -8.34375 2.25 -8.21875 C 2.382812 -8.09375 2.453125 -7.898438 2.453125 -7.640625 C 2.453125 -7.410156 2.382812 -7.160156 2.25 -6.890625 C 2.113281 -6.628906 1.9375 -6.378906 1.71875 -6.140625 C 1.5 -5.898438 1.273438 -5.703125 1.046875 -5.546875 Z M 1.046875 -5.546875 "/></g></g><g style="fill:#890355;fill-opacity:1;"><g transform="translate(174.171772, 268.717425)"><path style="stroke:none" d="M 2.703125 0.171875 C 2.328125 0.171875 1.960938 0.144531 1.609375 0.09375 C 1.253906 0.0507812 0.898438 -0.0195312 0.546875 -0.125 L 0.359375 -2.53125 L 0.59375 -2.5625 C 0.800781 -1.769531 1.132812 -1.179688 1.59375 -0.796875 C 2.050781 -0.421875 2.597656 -0.234375 3.234375 -0.234375 C 3.566406 -0.234375 3.867188 -0.296875 4.140625 -0.421875 C 4.421875 -0.554688 4.640625 -0.738281 4.796875 -0.96875 C 4.960938 -1.195312 5.046875 -1.460938 5.046875 -1.765625 C 5.046875 -2.191406 4.953125 -2.523438 4.765625 -2.765625 C 4.578125 -3.003906 4.316406 -3.191406 3.984375 -3.328125 C 3.660156 -3.472656 3.289062 -3.617188 2.875 -3.765625 C 2.144531 -4.023438 1.59375 -4.335938 1.21875 -4.703125 C 0.851562 -5.066406 0.671875 -5.550781 0.671875 -6.15625 C 0.671875 -6.59375 0.789062 -6.988281 1.03125 -7.34375 C 1.28125 -7.707031 1.613281 -7.992188 2.03125 -8.203125 C 2.457031 -8.410156 2.945312 -8.515625 3.5 -8.515625 C 3.851562 -8.515625 4.1875 -8.492188 4.5 -8.453125 C 4.820312 -8.410156 5.140625 -8.347656 5.453125 -8.265625 L 5.65625 -6.03125 L 5.4375 -5.984375 C 5.207031 -6.671875 4.90625 -7.191406 4.53125 -7.546875 C 4.15625 -7.898438 3.671875 -8.078125 3.078125 -8.078125 C 2.617188 -8.078125 2.226562 -7.953125 1.90625 -7.703125 C 1.59375 -7.453125 1.4375 -7.117188 1.4375 -6.703125 C 1.4375 -6.328125 1.554688 -6.015625 1.796875 -5.765625 C 2.035156 -5.523438 2.359375 -5.316406 2.765625 -5.140625 C 3.171875 -4.960938 3.613281 -4.789062 4.09375 -4.625 C 4.707031 -4.40625 5.164062 -4.125 5.46875 -3.78125 C 5.769531 -3.445312 5.921875 -3.003906 5.921875 -2.453125 C 5.921875 -1.953125 5.789062 -1.503906 5.53125 -1.109375 C 5.28125 -0.710938 4.910156 -0.398438 4.421875 -0.171875 C 3.941406 0.0546875 3.367188 0.171875 2.703125 0.171875 Z M 2.703125 0.171875 "/></g></g><g style="fill:#890355;fill-opacity:1;"><g transform="translate(181.863781, 268.717425)"><path style="stroke:none" d=""/></g></g><g style="fill:#890355;fill-opacity:1;"><g transform="translate(186.543785, 268.717425)"><path style="stroke:none" d="M 4.734375 -4.421875 C 6.203125 -4.179688 6.9375 -3.492188 6.9375 -2.359375 C 6.9375 -1.910156 6.8125 -1.503906 6.5625 -1.140625 C 6.320312 -0.773438 5.96875 -0.488281 5.5 -0.28125 C 5.039062 -0.0703125 4.476562 0.03125 3.8125 0.03125 C 3.53125 0.03125 3.226562 0.0234375 2.90625 0.015625 C 2.59375 0.00390625 2.285156 0 1.984375 0 L 0.421875 0 L 0.421875 -0.234375 C 0.734375 -0.316406 0.953125 -0.425781 1.078125 -0.5625 C 1.210938 -0.707031 1.296875 -0.894531 1.328125 -1.125 C 1.359375 -1.351562 1.375 -1.644531 1.375 -2 L 1.375 -6.359375 C 1.375 -6.722656 1.359375 -7.015625 1.328125 -7.234375 C 1.296875 -7.460938 1.210938 -7.644531 1.078125 -7.78125 C 0.953125 -7.925781 0.734375 -8.039062 0.421875 -8.125 L 0.421875 -8.359375 L 1.984375 -8.359375 C 2.347656 -8.359375 2.675781 -8.359375 2.96875 -8.359375 C 3.269531 -8.367188 3.53125 -8.375 3.75 -8.375 C 4.582031 -8.375 5.222656 -8.191406 5.671875 -7.828125 C 6.128906 -7.460938 6.359375 -6.984375 6.359375 -6.390625 C 6.359375 -5.929688 6.226562 -5.539062 5.96875 -5.21875 C 5.707031 -4.90625 5.296875 -4.640625 4.734375 -4.421875 Z M 3.4375 -8.03125 C 3.3125 -8.03125 3.160156 -8.023438 2.984375 -8.015625 C 2.804688 -8.003906 2.625 -7.984375 2.4375 -7.953125 L 2.4375 -4.640625 C 2.59375 -4.609375 2.75 -4.585938 2.90625 -4.578125 C 3.0625 -4.566406 3.21875 -4.5625 3.375 -4.5625 C 3.71875 -4.5625 4.023438 -4.609375 4.296875 -4.703125 C 4.578125 -4.804688 4.800781 -4.976562 4.96875 -5.21875 C 5.132812 -5.457031 5.21875 -5.78125 5.21875 -6.1875 C 5.21875 -6.507812 5.15625 -6.8125 5.03125 -7.09375 C 4.90625 -7.375 4.710938 -7.597656 4.453125 -7.765625 C 4.191406 -7.941406 3.851562 -8.03125 3.4375 -8.03125 Z M 3.75 -0.296875 C 4.1875 -0.296875 4.550781 -0.390625 4.84375 -0.578125 C 5.144531 -0.765625 5.375 -1.007812 5.53125 -1.3125 C 5.6875 -1.625 5.765625 -1.96875 5.765625 -2.34375 C 5.765625 -2.9375 5.566406 -3.394531 5.171875 -3.71875 C 4.773438 -4.050781 4.171875 -4.21875 3.359375 -4.21875 L 2.4375 -4.21875 L 2.4375 -0.421875 C 2.664062 -0.367188 2.890625 -0.332031 3.109375 -0.3125 C 3.335938 -0.300781 3.550781 -0.296875 3.75 -0.296875 Z M 3.75 -0.296875 "/></g></g><g style="fill:#890355;fill-opacity:1;"><g transform="translate(195.279792, 268.717425)"><path style="stroke:none" d="M 4.796875 0.1875 C 4.171875 0.1875 3.597656 0.078125 3.078125 -0.140625 C 2.566406 -0.367188 2.117188 -0.6875 1.734375 -1.09375 C 1.359375 -1.5 1.066406 -1.96875 0.859375 -2.5 C 0.648438 -3.03125 0.546875 -3.597656 0.546875 -4.203125 C 0.546875 -4.804688 0.65625 -5.375 0.875 -5.90625 C 1.101562 -6.4375 1.410156 -6.898438 1.796875 -7.296875 C 2.191406 -7.691406 2.644531 -8 3.15625 -8.21875 C 3.675781 -8.445312 4.226562 -8.5625 4.8125 -8.5625 C 5.445312 -8.5625 6.019531 -8.445312 6.53125 -8.21875 C 7.050781 -8 7.5 -7.691406 7.875 -7.296875 C 8.257812 -6.898438 8.554688 -6.441406 8.765625 -5.921875 C 8.972656 -5.398438 9.078125 -4.832031 9.078125 -4.21875 C 9.078125 -3.59375 8.960938 -3.015625 8.734375 -2.484375 C 8.515625 -1.953125 8.207031 -1.484375 7.8125 -1.078125 C 7.414062 -0.679688 6.960938 -0.367188 6.453125 -0.140625 C 5.941406 0.078125 5.390625 0.1875 4.796875 0.1875 Z M 5.078125 -0.15625 C 5.671875 -0.175781 6.171875 -0.359375 6.578125 -0.703125 C 6.992188 -1.046875 7.304688 -1.507812 7.515625 -2.09375 C 7.722656 -2.675781 7.8125 -3.347656 7.78125 -4.109375 C 7.75 -4.941406 7.59375 -5.664062 7.3125 -6.28125 C 7.039062 -6.90625 6.664062 -7.390625 6.1875 -7.734375 C 5.707031 -8.078125 5.15625 -8.234375 4.53125 -8.203125 C 3.945312 -8.191406 3.445312 -8.019531 3.03125 -7.6875 C 2.625 -7.351562 2.316406 -6.898438 2.109375 -6.328125 C 1.898438 -5.753906 1.8125 -5.101562 1.84375 -4.375 C 1.875 -3.519531 2.023438 -2.769531 2.296875 -2.125 C 2.578125 -1.488281 2.957031 -0.992188 3.4375 -0.640625 C 3.914062 -0.296875 4.460938 -0.132812 5.078125 -0.15625 Z M 5.078125 -0.15625 "/></g></g><g style="fill:#890355;fill-opacity:1;"><g transform="translate(206.247809, 268.717425)"><path style="stroke:none" d="M 4.53125 0.1875 C 3.632812 0.1875 2.941406 0.0234375 2.453125 -0.296875 C 1.972656 -0.628906 1.632812 -1.113281 1.4375 -1.75 C 1.25 -2.382812 1.15625 -3.160156 1.15625 -4.078125 L 1.21875 -6.359375 C 1.21875 -6.722656 1.195312 -7.019531 1.15625 -7.25 C 1.125 -7.476562 1.039062 -7.660156 0.90625 -7.796875 C 0.78125 -7.929688 0.554688 -8.039062 0.234375 -8.125 L 0.234375 -8.359375 L 3.234375 -8.359375 L 3.234375 -8.125 C 2.921875 -8.039062 2.695312 -7.925781 2.5625 -7.78125 C 2.4375 -7.644531 2.359375 -7.460938 2.328125 -7.234375 C 2.304688 -7.015625 2.296875 -6.722656 2.296875 -6.359375 L 2.296875 -3.90625 C 2.296875 -3.101562 2.359375 -2.4375 2.484375 -1.90625 C 2.617188 -1.382812 2.875 -1 3.25 -0.75 C 3.625 -0.5 4.175781 -0.375 4.90625 -0.375 C 5.71875 -0.375 6.320312 -0.632812 6.71875 -1.15625 C 7.125 -1.675781 7.34375 -2.367188 7.375 -3.234375 C 7.382812 -3.398438 7.382812 -3.578125 7.375 -3.765625 C 7.375 -3.960938 7.367188 -4.175781 7.359375 -4.40625 C 7.316406 -5.28125 7.242188 -5.972656 7.140625 -6.484375 C 7.035156 -7.003906 6.875 -7.382812 6.65625 -7.625 C 6.4375 -7.875 6.125 -8.039062 5.71875 -8.125 L 5.71875 -8.359375 L 8.609375 -8.359375 L 8.609375 -8.125 C 8.410156 -8.070312 8.253906 -7.984375 8.140625 -7.859375 C 8.035156 -7.742188 7.953125 -7.554688 7.890625 -7.296875 C 7.835938 -7.035156 7.800781 -6.65625 7.78125 -6.15625 C 7.757812 -5.65625 7.742188 -5 7.734375 -4.1875 C 7.734375 -3.53125 7.710938 -2.992188 7.671875 -2.578125 C 7.628906 -2.171875 7.539062 -1.800781 7.40625 -1.46875 C 7.1875 -0.957031 6.832031 -0.550781 6.34375 -0.25 C 5.863281 0.0390625 5.257812 0.1875 4.53125 0.1875 Z M 4.53125 0.1875 "/></g></g><g style="fill:#890355;fill-opacity:1;"><g transform="translate(216.375818, 268.717425)"><path style="stroke:none" d="M 6.875 -8.453125 L 7.03125 -6.234375 L 6.796875 -6.203125 C 6.691406 -6.597656 6.550781 -6.929688 6.375 -7.203125 C 6.207031 -7.472656 5.984375 -7.675781 5.703125 -7.8125 C 5.429688 -7.957031 5.070312 -8.03125 4.625 -8.03125 L 4.109375 -8.03125 L 4.109375 -2 C 4.109375 -1.632812 4.125 -1.335938 4.15625 -1.109375 C 4.1875 -0.878906 4.269531 -0.695312 4.40625 -0.5625 C 4.539062 -0.425781 4.765625 -0.316406 5.078125 -0.234375 L 5.078125 0 L 2.078125 0 L 2.078125 -0.234375 C 2.398438 -0.316406 2.625 -0.425781 2.75 -0.5625 C 2.875 -0.707031 2.953125 -0.894531 2.984375 -1.125 C 3.015625 -1.351562 3.03125 -1.644531 3.03125 -2 L 3.03125 -8.03125 L 2.53125 -8.03125 C 2.082031 -8.03125 1.71875 -7.957031 1.4375 -7.8125 C 1.15625 -7.675781 0.929688 -7.472656 0.765625 -7.203125 C 0.609375 -6.929688 0.472656 -6.597656 0.359375 -6.203125 L 0.125 -6.234375 L 0.28125 -8.453125 C 0.382812 -8.429688 0.515625 -8.410156 0.671875 -8.390625 C 0.828125 -8.367188 0.984375 -8.359375 1.140625 -8.359375 L 6.015625 -8.359375 C 6.171875 -8.359375 6.328125 -8.367188 6.484375 -8.390625 C 6.640625 -8.410156 6.769531 -8.429688 6.875 -8.453125 Z M 6.875 -8.453125 "/></g></g><g style="fill:#890355;fill-opacity:1;"><g transform="translate(224.871831, 268.717425)"><path style="stroke:none" d="M 1.421875 -2 L 1.421875 -6.359375 C 1.421875 -6.722656 1.398438 -7.019531 1.359375 -7.25 C 1.328125 -7.476562 1.242188 -7.660156 1.109375 -7.796875 C 0.984375 -7.929688 0.757812 -8.039062 0.4375 -8.125 L 0.4375 -8.359375 L 3.4375 -8.359375 L 3.4375 -8.125 C 3.125 -8.039062 2.898438 -7.925781 2.765625 -7.78125 C 2.640625 -7.644531 2.5625 -7.460938 2.53125 -7.234375 C 2.507812 -7.015625 2.5 -6.722656 2.5 -6.359375 L 2.5 -2 C 2.5 -1.632812 2.515625 -1.335938 2.546875 -1.109375 C 2.578125 -0.878906 2.660156 -0.695312 2.796875 -0.5625 C 2.929688 -0.425781 3.15625 -0.316406 3.46875 -0.234375 L 3.46875 0 L 0.46875 0 L 0.46875 -0.234375 C 0.789062 -0.316406 1.015625 -0.425781 1.140625 -0.5625 C 1.265625 -0.707031 1.34375 -0.894531 1.375 -1.125 C 1.40625 -1.351562 1.421875 -1.644531 1.421875 -2 Z M 1.421875 -2 "/></g></g><g style="fill:#890355;fill-opacity:1;"><g transform="translate(230.151837, 268.717425)"><path style="stroke:none" d="M 8.765625 1.296875 C 9.296875 1.585938 9.765625 1.828125 10.171875 2.015625 C 10.585938 2.203125 10.976562 2.332031 11.34375 2.40625 C 11.707031 2.488281 12.082031 2.53125 12.46875 2.53125 L 12.453125 2.765625 C 11.960938 2.765625 11.503906 2.765625 11.078125 2.765625 C 10.648438 2.773438 10.242188 2.757812 9.859375 2.71875 C 9.484375 2.675781 9.117188 2.585938 8.765625 2.453125 C 8.410156 2.304688 8.019531 2.097656 7.59375 1.828125 C 7.164062 1.566406 6.753906 1.285156 6.359375 0.984375 C 5.960938 0.691406 5.617188 0.414062 5.328125 0.15625 C 5.148438 0.175781 4.972656 0.1875 4.796875 0.1875 C 4.171875 0.1875 3.597656 0.078125 3.078125 -0.140625 C 2.566406 -0.367188 2.117188 -0.6875 1.734375 -1.09375 C 1.359375 -1.5 1.066406 -1.96875 0.859375 -2.5 C 0.648438 -3.03125 0.546875 -3.597656 0.546875 -4.203125 C 0.546875 -4.804688 0.65625 -5.375 0.875 -5.90625 C 1.101562 -6.4375 1.410156 -6.898438 1.796875 -7.296875 C 2.191406 -7.691406 2.644531 -8 3.15625 -8.21875 C 3.675781 -8.445312 4.226562 -8.5625 4.8125 -8.5625 C 5.445312 -8.5625 6.019531 -8.445312 6.53125 -8.21875 C 7.050781 -8 7.5 -7.691406 7.875 -7.296875 C 8.257812 -6.898438 8.554688 -6.441406 8.765625 -5.921875 C 8.972656 -5.398438 9.078125 -4.832031 9.078125 -4.21875 C 9.078125 -3.613281 8.96875 -3.046875 8.75 -2.515625 C 8.539062 -1.992188 8.25 -1.535156 7.875 -1.140625 C 7.5 -0.742188 7.0625 -0.425781 6.5625 -0.1875 C 6.925781 0.101562 7.289062 0.367188 7.65625 0.609375 C 8.019531 0.859375 8.390625 1.085938 8.765625 1.296875 Z M 1.84375 -4.375 C 1.875 -3.519531 2.023438 -2.769531 2.296875 -2.125 C 2.578125 -1.488281 2.957031 -0.992188 3.4375 -0.640625 C 3.914062 -0.296875 4.460938 -0.132812 5.078125 -0.15625 C 5.671875 -0.175781 6.171875 -0.359375 6.578125 -0.703125 C 6.992188 -1.046875 7.304688 -1.507812 7.515625 -2.09375 C 7.722656 -2.675781 7.8125 -3.347656 7.78125 -4.109375 C 7.75 -4.941406 7.59375 -5.664062 7.3125 -6.28125 C 7.039062 -6.90625 6.664062 -7.390625 6.1875 -7.734375 C 5.707031 -8.078125 5.15625 -8.234375 4.53125 -8.203125 C 3.945312 -8.191406 3.445312 -8.019531 3.03125 -7.6875 C 2.625 -7.351562 2.316406 -6.898438 2.109375 -6.328125 C 1.898438 -5.753906 1.8125 -5.101562 1.84375 -4.375 Z M 1.84375 -4.375 "/></g></g><g style="fill:#890355;fill-opacity:1;"><g transform="translate(241.119854, 268.717425)"><path style="stroke:none" d="M 4.53125 0.1875 C 3.632812 0.1875 2.941406 0.0234375 2.453125 -0.296875 C 1.972656 -0.628906 1.632812 -1.113281 1.4375 -1.75 C 1.25 -2.382812 1.15625 -3.160156 1.15625 -4.078125 L 1.21875 -6.359375 C 1.21875 -6.722656 1.195312 -7.019531 1.15625 -7.25 C 1.125 -7.476562 1.039062 -7.660156 0.90625 -7.796875 C 0.78125 -7.929688 0.554688 -8.039062 0.234375 -8.125 L 0.234375 -8.359375 L 3.234375 -8.359375 L 3.234375 -8.125 C 2.921875 -8.039062 2.695312 -7.925781 2.5625 -7.78125 C 2.4375 -7.644531 2.359375 -7.460938 2.328125 -7.234375 C 2.304688 -7.015625 2.296875 -6.722656 2.296875 -6.359375 L 2.296875 -3.90625 C 2.296875 -3.101562 2.359375 -2.4375 2.484375 -1.90625 C 2.617188 -1.382812 2.875 -1 3.25 -0.75 C 3.625 -0.5 4.175781 -0.375 4.90625 -0.375 C 5.71875 -0.375 6.320312 -0.632812 6.71875 -1.15625 C 7.125 -1.675781 7.34375 -2.367188 7.375 -3.234375 C 7.382812 -3.398438 7.382812 -3.578125 7.375 -3.765625 C 7.375 -3.960938 7.367188 -4.175781 7.359375 -4.40625 C 7.316406 -5.28125 7.242188 -5.972656 7.140625 -6.484375 C 7.035156 -7.003906 6.875 -7.382812 6.65625 -7.625 C 6.4375 -7.875 6.125 -8.039062 5.71875 -8.125 L 5.71875 -8.359375 L 8.609375 -8.359375 L 8.609375 -8.125 C 8.410156 -8.070312 8.253906 -7.984375 8.140625 -7.859375 C 8.035156 -7.742188 7.953125 -7.554688 7.890625 -7.296875 C 7.835938 -7.035156 7.800781 -6.65625 7.78125 -6.15625 C 7.757812 -5.65625 7.742188 -5 7.734375 -4.1875 C 7.734375 -3.53125 7.710938 -2.992188 7.671875 -2.578125 C 7.628906 -2.171875 7.539062 -1.800781 7.40625 -1.46875 C 7.1875 -0.957031 6.832031 -0.550781 6.34375 -0.25 C 5.863281 0.0390625 5.257812 0.1875 4.53125 0.1875 Z M 4.53125 0.1875 "/></g></g><g style="fill:#890355;fill-opacity:1;"><g transform="translate(251.247863, 268.717425)"><path style="stroke:none" d="M 6.71875 -2.234375 L 6.9375 -2.140625 L 6.171875 0 L 0.390625 0 L 0.390625 -0.234375 C 0.703125 -0.316406 0.925781 -0.425781 1.0625 -0.5625 C 1.195312 -0.707031 1.273438 -0.894531 1.296875 -1.125 C 1.328125 -1.351562 1.34375 -1.644531 1.34375 -2 L 1.34375 -6.359375 C 1.34375 -6.722656 1.328125 -7.015625 1.296875 -7.234375 C 1.273438 -7.460938 1.195312 -7.644531 1.0625 -7.78125 C 0.925781 -7.925781 0.703125 -8.039062 0.390625 -8.125 L 0.390625 -8.359375 L 6.03125 -8.359375 L 6.1875 -6.28125 L 5.953125 -6.234375 C 5.796875 -6.703125 5.609375 -7.066406 5.390625 -7.328125 C 5.179688 -7.585938 4.921875 -7.769531 4.609375 -7.875 C 4.304688 -7.988281 3.929688 -8.046875 3.484375 -8.046875 C 3.367188 -8.046875 3.265625 -8.039062 3.171875 -8.03125 C 3.085938 -8.03125 2.988281 -8.03125 2.875 -8.03125 C 2.769531 -8.03125 2.617188 -8.023438 2.421875 -8.015625 L 2.421875 -4.484375 L 3.296875 -4.515625 C 3.722656 -4.523438 4.054688 -4.570312 4.296875 -4.65625 C 4.546875 -4.75 4.734375 -4.875 4.859375 -5.03125 C 4.984375 -5.1875 5.066406 -5.375 5.109375 -5.59375 L 5.3125 -5.59375 L 5.28125 -2.921875 L 5.0625 -2.921875 C 5.019531 -3.148438 4.945312 -3.351562 4.84375 -3.53125 C 4.738281 -3.707031 4.5625 -3.851562 4.3125 -3.96875 C 4.070312 -4.082031 3.734375 -4.144531 3.296875 -4.15625 L 2.421875 -4.171875 L 2.421875 -0.390625 C 2.617188 -0.367188 2.835938 -0.351562 3.078125 -0.34375 C 3.316406 -0.34375 3.507812 -0.34375 3.65625 -0.34375 C 4.25 -0.34375 4.796875 -0.472656 5.296875 -0.734375 C 5.804688 -1.003906 6.28125 -1.503906 6.71875 -2.234375 Z M 6.71875 -2.234375 "/></g></g></g></svg>